<?xml version="1.0" encoding="UTF-8" standalone="no"?>
<svg width="6px" height="11px" viewBox="0 0 6 11" version="1.1" xmlns="http://www.w3.org/2000/svg" xmlns:xlink="http://www.w3.org/1999/xlink">
    <!-- Generator: Sketch 3.6.1 (26313) - http://www.bohemiancoding.com/sketch -->
    <title>arrow_back_12</title>
    <desc>Created with Sketch.</desc>
    <defs/>
    <g id="Основные-составляющие-страницы" stroke="none" stroke-width="1" fill="none" fill-rule="evenodd">
        <g id="23" transform="translate(-1138.000000, -723.000000)" fill="#565656">
            <g id="arrow_back_12" transform="translate(1138.000000, 723.000000)">
                <path d="M2.86952253,7.51607931 L7.16950364,3.36697473 C7.38227291,3.16167105 7.72595275,3.16042892 7.94045109,3.36740099 C8.15346434,3.5729401 8.15398021,3.90568705 7.94089285,4.11129765 L3.35452899,8.53673647 C3.33033557,8.56008099 3.30444958,8.58078713 3.27725335,8.59884878 C3.25752633,8.62332286 3.23526361,8.64649381 3.21047755,8.66802821 C2.98660798,8.86252855 2.64220672,8.84561099 2.44056352,8.62952134 L-1.89948316,3.97853786 C-2.10082535,3.76277078 -2.08412408,3.43153934 -1.85869371,3.23568299 C-1.63482414,3.04118265 -1.29042291,3.05810021 -1.08877969,3.27418986 L2.86952253,7.51607931 L2.86952253,7.51607931 Z" id="arrow_back" transform="translate(3.030303, 5.951856) rotate(90.000000) translate(-3.030303, -5.951856) "/>
            </g>
        </g>
    </g>
</svg>