<?xml version="1.0" encoding="UTF-8"?>
<!-- Generator: Adobe Illustrator 16.0.0, SVG Export Plug-In . SVG Version: 6.00 Build 0)  -->
<!DOCTYPE svg PUBLIC "-//W3C//DTD SVG 1.1//EN" "http://www.w3.org/Graphics/SVG/1.1/DTD/svg11.dtd">
<svg version="1.1" id="Слой_1" xmlns="http://www.w3.org/2000/svg" xmlns:xlink="http://www.w3.org/1999/xlink" x="0px" y="0px" width="69.246px" height="74.757px" viewBox="0 0 69.246 74.757" enable-background="new 0 0 69.246 74.757" xml:space="preserve">
<g>
	<defs>
		<path id="SVGID_1_" d="M65.462,49.572c-0.318,2.99-2.685,7.164-5.068,8.932c-0.045,0.033-4.521,3.35-10.08,6.613    c-5.543,3.25-10.62,5.545-10.669,5.566c-1.263,0.568-3.093,0.893-5.021,0.893c-1.929,0-3.759-0.324-5.02-0.891    c-0.05-0.023-5.131-2.318-10.672-5.568c-5.543-3.254-10.037-6.582-10.083-6.615c-2.382-1.766-4.749-5.939-5.064-8.93    c-0.005-0.055-0.591-5.682-0.591-12.193c0-6.513,0.586-12.138,0.591-12.194c0.316-2.989,2.684-7.163,5.067-8.933    c0.044-0.032,4.537-3.356,10.081-6.607c5.543-3.253,10.623-5.55,10.671-5.572c1.262-0.566,3.092-0.892,5.021-0.892    c1.928,0,3.758,0.325,5.018,0.891c0.051,0.023,5.129,2.32,10.673,5.573c5.542,3.251,10.036,6.575,10.081,6.607    c2.381,1.77,4.748,5.943,5.066,8.933c0.006,0.057,0.592,5.663,0.592,12.194C66.054,43.89,65.468,49.517,65.462,49.572z     M68.637,24.851c-0.409-3.848-3.259-8.865-6.335-11.148c0,0-4.596-3.413-10.367-6.799c-5.773-3.389-10.979-5.73-10.979-5.73    C39.216,0.391,36.919,0,34.624,0c-2.296,0-4.592,0.391-6.333,1.173c0,0-5.206,2.342-10.979,5.73    c-5.772,3.386-10.368,6.799-10.368,6.799c-3.076,2.283-5.927,7.301-6.334,11.148c0,0-0.609,5.754-0.609,12.528    c0,6.773,0.609,12.527,0.609,12.527c0.407,3.85,3.258,8.867,6.333,11.148c0,0,4.597,3.414,10.369,6.805    c5.773,3.385,10.979,5.725,10.979,5.725c1.742,0.783,4.037,1.174,6.333,1.174c2.295,0,4.592-0.391,6.333-1.174    c0,0,5.205-2.34,10.977-5.725c5.773-3.391,10.369-6.805,10.369-6.805c3.076-2.281,5.926-7.299,6.335-11.148    c0,0,0.608-5.754,0.608-12.527C69.246,30.604,68.637,24.851,68.637,24.851z"/>
	</defs>
	<clipPath id="SVGID_2_">
		<use xlink:href="#SVGID_1_" overflow="visible"/>
	</clipPath>
	<rect x="-5" y="-5" clip-path="url(#SVGID_2_)" fill="#1373BA" width="79.246" height="84.757"/>
</g>
<path fill-rule="evenodd" clip-rule="evenodd" fill="#1373BA" d="M41.31,36.442l-9.186-9.185c-0.593-0.593-1.54-0.59-2.125-0.004  c-0.59,0.59-0.584,1.537,0.003,2.125l8.482,8.482l-8.482,8.48c-0.592,0.594-0.589,1.539-0.003,2.125  c0.59,0.59,1.537,0.584,2.125-0.004l9.186-9.184c0.389-0.39,0.495-0.927,0.374-1.418C41.805,37.367,41.697,36.829,41.31,36.442z"/>
</svg>