<svg xmlns="http://www.w3.org/2000/svg" xmlns:xlink="http://www.w3.org/1999/xlink" width="194" height="213" viewBox="0 0 194 213"><defs><path id="a" d="M79.945 108.738h-19.6c-.192 0-.346.15-.358.337-.492 8.85-2.16 18.386-4.574 26.173-.034.106-.015.226.05.317.07.09.176.145.29.145h6.707c.154 0 .292-.1.34-.25 1.877-6.003 3.385-13.8 3.96-20.438h6.43v20.332c0 .194.162.355.358.355h6.396c.198 0 .356-.162.356-.356v-26.258c0-.197-.155-.358-.355-.358"/></defs><clipPath id="b"><use xlink:href="#a" overflow="visible"/></clipPath><g clip-path="url(#b)"><defs><path id="c" d="M0 0h194v213H0z"/></defs><clipPath id="d"><use xlink:href="#c" overflow="visible"/></clipPath><path clip-path="url(#d)" fill="#EF3E58" d="M50.397 103.738H85.3v36.972H50.398z"/></g><defs><path id="e" d="M162.836 108.738h-6.396c-.196 0-.358.16-.358.357v20.315c-1.403.395-2.805.583-4.386.583-4.24 0-5.216-1.295-5.216-6.92v-13.978c0-.196-.16-.357-.357-.357h-6.395c-.198 0-.357.16-.357.357v14.65c0 9.165 3.095 12.737 11.035 12.737 4.52 0 9.562-1.152 12.558-2.292.14-.057.232-.187.232-.333v-24.763c0-.195-.163-.356-.36-.356"/></defs><clipPath id="f"><use xlink:href="#e" overflow="visible"/></clipPath><g clip-path="url(#f)"><defs><path id="g" d="M0 0h194v213H0z"/></defs><clipPath id="h"><use xlink:href="#g" overflow="visible"/></clipPath><path clip-path="url(#h)" fill="#EF3E58" d="M134.37 103.738h33.825v37.746H134.37z"/></g><defs><path id="i" d="M27.22 108.766h-6.5c-.162 0-.305.11-.343.27-1.03 4.05-3.093 10.796-5.867 17.868l-6.528-17.93c-.05-.14-.184-.235-.333-.235H1.066c-.115 0-.224.057-.29.15-.068.097-.085.22-.046.33l9.777 26.837c-1.022 2.056-1.94 3.76-2.826 5.41-.65 1.215-1.287 2.395-1.927 3.65-.06.11-.053.244.01.35.067.105.182.17.307.17h7.12c.132 0 .253-.075.316-.194 1.207-2.322 2.7-5.546 4.086-8.844 4.154-9.772 7.51-18.984 9.968-27.378.033-.11.01-.226-.056-.316s-.17-.14-.283-.14"/></defs><clipPath id="j"><use xlink:href="#i" overflow="visible"/></clipPath><g clip-path="url(#j)"><defs><path id="k" d="M0 0h194v213H0z"/></defs><clipPath id="l"><use xlink:href="#k" overflow="visible"/></clipPath><path clip-path="url(#l)" fill="#EF3E58" d="M-4.29 103.738h36.866v46.898H-4.29z"/></g><defs><path id="m" d="M50.528 129.43c-.032-.09-.1-.164-.186-.202-.087-.042-.184-.045-.275-.01-1.56.574-4.485 1.045-6.52 1.045-4.46 0-6.582-1.202-6.582-8.043 0-5.47.65-8.043 6.583-8.043 1.682 0 3.245.246 5.225.817.163.044.335-.027.415-.174.742-1.394 1.638-3.095 2.647-5.18.044-.092.046-.203.004-.298-.04-.09-.123-.166-.22-.198-2.624-.834-5.74-1.315-8.542-1.315-9.34 0-13.505 4.405-13.505 14.285 0 10.026 4.166 14.495 13.505 14.495 2.34 0 6.954-.49 9.177-1.382.18-.07.27-.268.204-.452l-1.932-5.347"/></defs><clipPath id="n"><use xlink:href="#m" overflow="visible"/></clipPath><g clip-path="url(#n)"><defs><path id="o" d="M0 0h194v213H0z"/></defs><clipPath id="p"><use xlink:href="#o" overflow="visible"/></clipPath><path clip-path="url(#p)" fill="#EF3E58" d="M24.572 102.83H57.48v38.78H24.57z"/></g><g><defs><path id="q" d="M111.41 108.766h-6.5c-.165 0-.307.11-.348.27-1.028 4.052-3.092 10.8-5.864 17.868l-6.53-17.93c-.05-.14-.183-.235-.334-.235h-6.58c-.114 0-.225.057-.29.15-.07.097-.083.22-.046.33l9.774 26.837c-1.02 2.052-1.93 3.75-2.82 5.402-.654 1.214-1.288 2.395-1.93 3.657-.06.11-.054.242.01.35.066.103.18.17.306.17h7.12c.13 0 .254-.076.315-.196 1.207-2.316 2.696-5.54 4.086-8.843 4.147-9.754 7.502-18.965 9.968-27.377.033-.108.012-.225-.054-.316-.067-.087-.175-.138-.285-.138"/></defs><clipPath id="r"><use xlink:href="#q" overflow="visible"/></clipPath><g clip-path="url(#r)"><defs><path id="s" d="M0 0h194v213H0z"/></defs><clipPath id="t"><use xlink:href="#s" overflow="visible"/></clipPath><path clip-path="url(#t)" fill="#EF3E58" d="M79.9 103.738h36.865v46.898H79.9z"/></g></g><g><defs><path id="u" d="M135.418 108.738H116.48c-.195 0-.355.16-.355.357v26.26c0 .194.16.354.356.354h6.397c.195 0 .356-.16.356-.356v-20.332h9.887c.145 0 .273-.084.328-.215.752-1.775 1.524-3.653 2.3-5.58.042-.107.028-.233-.034-.328-.067-.1-.18-.162-.296-.162"/></defs><clipPath id="v"><use xlink:href="#u" overflow="visible"/></clipPath><g clip-path="url(#v)"><defs><path id="w" d="M0 0h194v213H0z"/></defs><clipPath id="x"><use xlink:href="#w" overflow="visible"/></clipPath><path clip-path="url(#x)" fill="#EF3E58" d="M111.125 103.738h29.647v36.972h-29.647z"/></g></g><g><defs><path id="y" d="M34.8 68.338c-9.24 0-12.84 3.96-12.84 14.127 0 10.316 3.6 14.333 12.84 14.333 9.315 0 12.942-4.018 12.942-14.333 0-10.165-3.627-14.127-12.943-14.127m0 22.543c-4.212 0-5.524-1.145-5.524-8.308 0-7.63 1.43-8.313 5.523-8.313 4.167 0 5.625.68 5.625 8.312 0 7.163-1.336 8.31-5.626 8.31"/></defs><clipPath id="z"><use xlink:href="#y" overflow="visible"/></clipPath><g clip-path="url(#z)"><defs><path id="A" d="M0 0h194v213H0z"/></defs><clipPath id="B"><use xlink:href="#A" overflow="visible"/></clipPath><path clip-path="url(#B)" fill="#0F67B1" d="M16.96 63.338h35.782v38.46H16.96z"/></g></g><g><defs><path id="C" d="M73.264 89.8c-.033-.09-.098-.164-.186-.2-.087-.043-.185-.045-.274-.012-1.56.575-4.488 1.046-6.52 1.046-4.462 0-6.585-1.202-6.585-8.043 0-5.468.65-8.04 6.583-8.04 1.68 0 3.244.244 5.226.816.16.044.332-.027.413-.175.743-1.392 1.636-3.093 2.645-5.18.046-.09.05-.2.006-.295-.04-.092-.12-.167-.217-.2-2.627-.832-5.74-1.315-8.545-1.315-9.34 0-13.502 4.407-13.502 14.287 0 10.026 4.163 14.495 13.502 14.495 2.34 0 6.954-.49 9.18-1.38.178-.072.267-.27.2-.455L73.265 89.8"/></defs><clipPath id="D"><use xlink:href="#C" overflow="visible"/></clipPath><g clip-path="url(#D)"><defs><path id="E" d="M0 0h194v213H0z"/></defs><clipPath id="F"><use xlink:href="#E" overflow="visible"/></clipPath><path clip-path="url(#F)" fill="#0F67B1" d="M47.31 63.2h32.905v38.78H47.31z"/></g></g><g><defs><path id="G" d="M20.002 69.108H1.067c-.197 0-.356.16-.356.36v26.257c0 .195.16.355.357.355H7.46c.2 0 .36-.16.36-.355v-20.33h9.887c.144 0 .27-.086.327-.216.75-1.777 1.526-3.655 2.298-5.58.045-.11.03-.235-.036-.33-.065-.1-.174-.162-.294-.162"/></defs><clipPath id="H"><use xlink:href="#G" overflow="visible"/></clipPath><g clip-path="url(#H)"><defs><path id="I" d="M0 0h194v213H0z"/></defs><clipPath id="J"><use xlink:href="#I" overflow="visible"/></clipPath><path clip-path="url(#J)" fill="#0F67B1" d="M-4.29 64.108h29.648v36.973H-4.29z"/></g></g><linearGradient id="K" gradientUnits="userSpaceOnUse" x1="100.518" y1=".876" x2="100.518" y2="212.96"><stop offset=".398" stop-color="#1466AC"/><stop offset=".659" stop-color="#EF4058"/></linearGradient><path fill-rule="evenodd" clip-rule="evenodd" fill="url(#K)" d="M192.73 132.974c.01-.13.02-.263.028-.396l.05-.716c.255-3.667.516-8.238.69-13.356.004-.14.01-.277.013-.415.116-3.512.19-7.273.19-11.17 0-3.9-.073-7.66-.19-11.173-.003-.14-.008-.277-.013-.415-.174-5.12-.435-9.69-.69-13.356-.016-.243-.032-.48-.05-.716-.01-.133-.02-.266-.027-.396l-.08-1.09c-.013-.15-.023-.298-.035-.445-.297-3.876-.546-6.266-.57-6.51-.04-.376-.088-.754-.14-1.135l-.045-.28c-.1-.67-.217-1.348-.357-2.032-.02-.097-.044-.195-.064-.292-1.732-8.103-6.235-17-11.843-23.73-2.162-2.596-4.488-4.87-6.882-6.654-.237-.177-3-2.23-7.445-5.292-5.105-3.52-12.43-8.37-20.7-13.243-14.727-8.67-27.903-14.734-29.635-15.522-.002 0-.003 0-.005-.002l-.02-.008-.146-.067h-.003c-3.872-1.746-8.623-2.912-13.746-3.41-.978-.095-1.967-.168-2.97-.213-.892-.04-1.793-.06-2.7-.06-.452 0-.904.004-1.354.015-6.75.152-13.12 1.44-18.06 3.668l-.022.01c-.785.355-14.126 6.418-29.245 15.277h.01l-.552.325c-15.466 9.106-27.633 18.145-28.144 18.525-3.803 2.833-7.183 6.407-10.26 11.042-.68 1.023-.743 3.647 2.297 3.647h7.656c3.302 0 4.082-2.01 7.773-4.667 4.128-2.97 12.162-9.03 27.02-17.778C63.164 24.64 73.184 19.69 78.03 17.377l.04-.02.257-.122.112-.053.145-.07.238-.112c.003 0 .006-.003.01-.004.085-.04.17-.08.25-.12h.003c1.246-.587 1.952-.908 1.982-.92 3.41-1.538 8.196-2.46 13.26-2.57.338-.006.677-.01 1.018-.01.34 0 .678.004 1.016.01 1.497.033 2.967.14 4.387.308 3.063.365 5.885 1.034 8.174 1.962.238.096.47.196.698.298l.367.168c2.264 1.042 14.735 6.866 28.237 14.82 7.957 4.684 15.105 9.423 20.05 12.83 4.287 2.956 6.917 4.91 6.973 4.95 1.9 1.416 3.797 3.372 5.562 5.642 4.51 5.802 8.158 13.654 8.802 19.763.007.06.264 2.537.57 6.61l.06.826c.015.19.028.385.042.582l.076 1.085c.01.144.02.288.028.433l.05.742.094 1.5c.02.313.038.628.057.95l.015.232.062 1.107c.015.26.03.523.043.79.274 5.21.492 11.405.492 17.932s-.218 12.722-.492 17.933l-.043.788c-.02.374-.04.743-.062 1.106l-.014.233-.056.948c-.03.515-.062 1.015-.094 1.5l-.05.744c-.01.145-.02.29-.028.432-.025.37-.05.733-.076 1.086-.014.196-.027.39-.042.58l-.06.826c-.307 4.074-.563 6.55-.57 6.61-.644 6.11-4.292 13.962-8.802 19.764-1.765 2.27-3.66 4.227-5.562 5.642-.056.04-2.686 1.995-6.974 4.95-4.943 3.407-12.092 8.147-20.05 12.83-13.5 7.955-25.973 13.78-28.237 14.82-.23.105-.355.163-.368.17-.228.102-.46.2-.698.297-2.29.928-5.11 1.597-8.175 1.962-1.42.168-2.89.273-4.388.306-.338.008-.676.012-1.016.012-.34 0-.68-.004-1.017-.012-5.066-.108-9.853-1.03-13.262-2.567-.03-.015-.737-.335-1.982-.923l-.04-.02c-.132-.06-.268-.126-.41-.193l-.045-.02c-.107-.052-.22-.106-.336-.16l-.18-.087-.282-.135c-.12-.058-.244-.116-.37-.178l-.082-.038c-5.064-2.433-14.66-7.218-24.875-13.234-14.857-8.748-22.89-14.807-27.02-17.778-3.69-2.657-4.47-4.666-7.773-4.666h-7.656c-3.04 0-2.976 2.623-2.296 3.647 3.076 4.636 6.457 8.21 10.26 11.043.51.38 12.677 9.418 28.144 18.524.825.486 1.645.964 2.458 1.433h-.01c14.31 8.248 26.573 13.823 27.337 14.168l.022.012c4.94 2.227 11.31 3.516 18.06 3.668.45.01.902.016 1.355.016.906 0 1.807-.022 2.7-.062 1.002-.046 1.99-.12 2.97-.214 5.122-.497 9.873-1.664 13.746-3.41h.003c.025-.013.076-.035.147-.068l.02-.008.004-.002c1.73-.788 14.908-6.854 29.636-15.523 8.27-4.873 15.594-9.724 20.7-13.243 4.444-3.062 7.207-5.114 7.444-5.29 2.394-1.784 4.72-4.06 6.882-6.654 5.606-6.73 10.11-15.627 11.84-23.73.022-.098.045-.196.065-.292.14-.685.258-1.36.357-2.032l.044-.28c.053-.38.1-.76.14-1.134.025-.244.274-2.634.57-6.51.013-.146.023-.295.035-.445l.08-1.09"/></svg>