<?xml version="1.0" encoding="utf-8"?>
<!-- Generator: Adobe Illustrator 19.0.0, SVG Export Plug-In . SVG Version: 6.00 Build 0)  -->
<svg version="1.1" id="Layer_1" xmlns="http://www.w3.org/2000/svg" xmlns:xlink="http://www.w3.org/1999/xlink" x="0px" y="0px"
	 viewBox="0 0 262.5 250.6" style="enable-background:new 0 0 262.5 250.6;" xml:space="preserve">
<style type="text/css">
	.st0{fill-rule:evenodd;clip-rule:evenodd;}
	.st1{fill-rule:evenodd;clip-rule:evenodd;fill:#FFFFFF;}
	.st2{fill-rule:evenodd;clip-rule:evenodd;fill:#0070B7;}
	.st3{fill-rule:evenodd;clip-rule:evenodd;fill:#EB212E;}
	.st4{fill-rule:evenodd;clip-rule:evenodd;fill:#00A453;}
	.st5{fill:#FFFFFF;}
</style>
<g>
	<polygon class="st0" points="256.5,42.3 256.6,42.3 256.9,42.3 257.2,42.3 257.4,42.3 257.7,42.4 258,42.4 258.3,42.4 258.5,42.4 
		258.8,42.4 259,42.4 259.3,42.4 259.5,42.5 259.7,42.5 262.5,42.5 262.5,224.9 257.3,224.2 255.1,223.9 252.9,223.6 250.7,223.3 
		248.5,223.1 246.4,222.9 244.2,222.7 242.1,222.5 239.9,222.4 237.8,222.3 235.7,222.2 233.6,222.1 231.5,222.1 229.5,222.1 
		227.4,222.1 225.4,222.1 223.4,222.1 221.4,222.2 219.4,222.3 217.4,222.5 215.4,222.6 213.5,222.8 211.6,223 209.6,223.2 
		207.7,223.5 205.8,223.7 203.9,224 202.1,224.4 200.2,224.7 198.4,225.1 196.5,225.5 194.6,225.9 192.5,226.3 190.5,226.7 
		188.5,227.2 186.5,227.8 184.6,228.4 182.6,229.1 180.6,229.9 178.6,230.7 176.6,231.6 174.6,232.5 172.7,233.4 170.7,234.4 
		168.7,235.4 166.7,236.4 164.8,237.4 162.8,238.5 160.8,239.5 158.9,240.5 156.9,241.5 154.9,242.5 153,243.5 151,244.4 
		149.1,245.3 147.1,246.1 145.2,246.9 143.2,247.7 141.3,248.4 139.3,249 137.4,249.5 135.4,250 133.5,250.3 131.2,250.6 129,250.3 
		127,250 125.1,249.5 123.1,249 121.2,248.4 119.2,247.7 117.3,246.9 115.3,246.1 113.4,245.3 111.4,244.4 109.5,243.5 107.5,242.5 
		105.6,241.5 103.6,240.5 101.6,239.5 99.7,238.5 97.7,237.4 95.7,236.4 93.8,235.4 91.8,234.4 89.8,233.4 87.8,232.5 85.8,231.6 
		83.9,230.7 81.9,229.9 79.9,229.1 77.9,228.4 75.9,227.8 73.9,227.2 71.9,226.7 70,226.3 67.9,225.9 65.9,225.5 64.1,225.1 
		62.3,224.7 60.4,224.4 58.5,224 56.6,223.7 54.7,223.5 52.8,223.2 50.9,223 49,222.8 47,222.6 45,222.5 43.1,222.3 41.1,222.2 
		39.1,222.1 37.1,222.1 35,222.1 33,222.1 30.9,222.1 28.8,222.1 26.8,222.2 24.7,222.3 22.5,222.4 20.4,222.5 18.3,222.7 
		16.1,222.9 13.9,223.1 11.8,223.3 9.6,223.6 7.3,223.9 5.1,224.2 0,224.9 0,42.5 2.7,42.5 2.9,42.5 3.2,42.4 3.4,42.4 3.7,42.4 
		3.9,42.4 4.2,42.4 4.5,42.4 4.7,42.4 5,42.3 5.3,42.3 5.6,42.3 5.9,42.3 6,42.3 6,42.1 6,41.6 6,41.1 6,40.6 6,40.1 6.1,39.7 
		6.1,39.2 6.1,38.7 6.2,38.3 6.2,37.8 6.3,37.4 6.4,36.9 6.5,36.5 6.8,35.3 8.1,34.3 8.8,33.7 9.5,33.2 10.2,32.7 10.8,32.2 
		11.5,31.7 12.2,31.2 12.9,30.7 13.7,30.2 14.4,29.8 15.1,29.3 15.8,28.9 16.5,28.5 17.2,28.1 17.9,27.7 18.6,27.3 19.4,26.9 
		20.1,26.6 20.8,26.2 21.5,25.9 22.2,25.6 23,25.2 23.7,24.9 24.4,24.6 25.1,24.3 25.9,24.1 26.6,23.8 27.3,23.5 28.1,23.3 
		28.8,23.1 29.5,22.8 30.2,22.6 30.2,22.6 30.5,22.5 30.5,3.2 36.9,5.4 39.9,6.5 43,7.6 46,8.7 49.1,9.8 52.1,10.9 55.2,12 
		58.3,13.1 61.4,14.2 64.4,15.4 67.5,16.5 70.6,17.6 73.7,18.7 76.8,19.8 79.9,21 83,22.1 86.1,23.2 89.2,24.3 92.2,25.5 95.3,26.6 
		98.4,27.7 101.5,28.8 104.6,29.9 107.7,31.1 110.7,32.2 113.8,33.3 116.9,34.4 119.9,35.5 123,36.6 126,37.6 129,38.7 131.2,39.5 
		133.4,38.7 136.5,37.6 139.5,36.6 142.6,35.5 145.6,34.4 148.7,33.3 151.7,32.2 154.8,31.1 157.9,29.9 161,28.8 164,27.7 
		167.1,26.6 170.2,25.5 173.3,24.3 176.4,23.2 179.5,22.1 182.6,21 185.7,19.8 188.8,18.7 191.8,17.6 194.9,16.5 198,15.4 
		201.1,14.2 204.2,13.1 207.3,12 210.3,10.9 213.4,9.8 216.4,8.7 219.5,7.6 222.5,6.5 225.6,5.4 232,3.2 232,22.5 232.3,22.6 
		232.3,22.6 232.9,22.8 233.7,23.1 234.4,23.3 235.1,23.5 235.9,23.8 236.6,24.1 237.3,24.3 238.1,24.6 238.8,24.9 239.5,25.2 
		240.2,25.6 241,25.9 241.7,26.2 242.4,26.6 243.1,26.9 243.8,27.3 244.5,27.7 245.3,28.1 246,28.5 246.7,28.9 247.4,29.3 
		248.1,29.8 248.8,30.2 249.5,30.7 250.2,31.2 250.9,31.7 251.6,32.2 252.3,32.7 253,33.2 253.7,33.7 254.4,34.3 255.7,35.3 
		256,36.5 256.1,36.9 256.2,37.4 256.2,37.8 256.3,38.3 256.3,38.7 256.4,39.2 256.4,39.7 256.4,40.1 256.5,40.6 256.5,41.1 
		256.5,41.6 256.5,42.1 256.5,42.3 	"/>
	<path class="st1" d="M30.9,25C23.5,27.2,16,31,9,36.7C8.1,40.1,8.7,47,8.7,50.7v158.4l22.3-34.6v-0.2V25L30.9,25z"/>
	<path class="st1" d="M231.5,25c7.5,2.1,14.9,5.9,22,11.7c0.9,3.3,0.3,10.2,0.3,13.9v158.4l-22.3-34.6v-0.2V25L231.5,25z"/>
	<path class="st1" d="M129.2,201.2c-14.9-8.8-29.9-15.7-45-20.4c-17-5.3-34.2-7.8-51.5-7.4C32.7,117.8,33,62,33,6.7
		c27,9.6,55,19.9,82.4,29.8c0.3,10.6,4.2,22,13.8,32.9V201.2L129.2,201.2z"/>
	<path class="st2" d="M133.3,145.7c16.1-10.9,32.1-17.9,48-22.4c16.1-4.5,32.2-6.5,48.4-7.3c0,19.2,0.1,38.4,0.1,57.5
		c-17.3-0.4-34.5,2.1-51.5,7.4c-15.1,4.7-30.1,11.6-45,20.4V145.7L133.3,145.7z"/>
	<path class="st3" d="M133.3,86.8c16.1-10.9,32.1-17.9,48-22.4c16-4.5,32.1-6.5,48.2-7.3c0,19.5,0.1,38.9,0.1,58.4
		c-16.2,0.8-32.4,2.8-48.5,7.4c-15.9,4.5-31.9,11.5-47.9,22.3V86.8L133.3,86.8z"/>
	<path class="st1" d="M147.1,36.5c27.3-9.8,55.3-20.2,82.4-29.8c0,16.6,0,33.2,0.1,49.8c-16.2,0.8-32.3,2.8-48.3,7.4
		c-15.9,4.5-31.9,11.5-47.9,22.3V69.4C142.9,58.5,146.8,47.1,147.1,36.5L147.1,36.5z"/>
	<path class="st1" d="M133.3,203.3c1-0.6,2.1-1.2,3.1-1.9c5.3,2.9,9.8,6.7,13.6,11.3c3.7,4.4,6.7,9.6,9,15.6
		c-0.6,0.4-1.3,0.7-1.9,1.1c-8.4,4.8-16.2,9.3-26,9.7c-9.8-0.4-17.6-4.9-26-9.7c-0.6-0.4-1.3-0.7-1.9-1.1c2.4-6,5.4-11.2,9-15.6
		c3.8-4.6,8.4-8.4,13.6-11.3c1,0.6,2.1,1.2,3.1,1.9V220c-6.2,1.2-10,6-13.5,11.4c5.2,0,10.4,0,15.6,0c5.2,0,10.4,0,15.6,0
		c-3.5-5.4-7.3-10.2-13.5-11.4V203.3L133.3,203.3z"/>
	<path class="st1" d="M131.2,240.9c10.2-0.4,18.2-5,26.8-10c7.3-4.2,14.9-8.6,24.7-10.8l0,0c11.8-3.3,23.6-5.1,35.5-6.2
		c11.8-1.1,23.6-1.4,35.4-1.8l1.9,0V44.7c1.5,0.1,3.1,0.2,4.4,0.2c0,59,0,118,0,177c-24.2-3.7-46.1-3.3-65.8,1.5
		c-22.3,3.2-43.4,22.5-62.9,24.6c-19.5-2.1-40.6-21.4-62.9-24.6c-19.7-4.8-41.6-5.1-65.8-1.5c0-59,0-118,0-177
		c1.3,0,2.9-0.1,4.4-0.2v167.4l1.9,0c11.8,0.3,23.6,0.7,35.4,1.8c11.8,1.1,23.6,2.9,35.5,6.2l0,0c9.7,2.3,17.4,6.7,24.7,10.8
		C113,235.9,121,240.5,131.2,240.9L131.2,240.9z"/>
	<path class="st1" d="M178.8,182.5c16.9-5.3,34-7.8,51.2-7.3l-0.1,0.1l22.6,35.2c-11.5,0.3-22.9,0.7-34.4,1.7
		c-11.9,1.1-23.8,3-35.7,6.3c-8.5,2-15.4,5.5-21.7,9.1c-0.6-1.4-1.1-2.8-1.8-4.1c11.8-5.6,24-9.8,36.6-12.7
		c15-3.4,30.6-4.9,46.7-4.7l0-1.8c-16.2-0.2-31.9,1.3-47.1,4.7c-12.7,2.9-25,7.1-37,12.8c-0.7-1.4-1.5-2.8-2.3-4.1
		c11.8-5.7,23.9-9.9,36.5-12.8c15-3.5,30.6-5.1,46.6-5l0-1.8c-16.2-0.1-31.9,1.5-47.1,5c-12.7,3-25.1,7.3-37,13.1
		c-0.6-0.9-1.1-1.7-1.7-2.5c12.1-6.9,24.7-12,37.8-15.3c13.7-3.5,27.9-5.1,42.5-5l0-1.8c-14.8-0.1-29.1,1.5-43,5
		c-13.3,3.4-26.1,8.5-38.4,15.6c-0.2-0.3-0.4-0.5-0.6-0.8c-1-1.2-2-2.3-3-3.3c12.3-7.1,25.2-12.3,38.5-15.7
		c13.7-3.5,27.9-5.1,42.5-5l0-1.8c-14.8-0.1-29.1,1.5-43,5c-13.6,3.5-26.7,8.8-39.3,16.1c-2.7-2.5-5.6-4.7-8.9-6.6
		C151.7,192.7,165.2,186.7,178.8,182.5L178.8,182.5z"/>
	<path class="st1" d="M128,177.1c-11-32.3-32.9-46.8-61-51.3C76.5,156.9,96.1,174.9,128,177.1L128,177.1z"/>
	<path class="st1" d="M128,124.6c-11-32.3-32.9-46.8-61-51.3C76.5,104.3,96.1,122.3,128,124.6L128,124.6z"/>
	<path class="st1" d="M134.4,124.6c11-32.3,32.9-46.8,61-51.3C186,104.3,166.3,122.3,134.4,124.6L134.4,124.6z"/>
	<path class="st1" d="M134.4,177.1c11-32.3,32.9-46.8,61-51.3C186,156.9,166.3,174.9,134.4,177.1L134.4,177.1z"/>
	<path class="st1" d="M83.6,182.5c-16.9-5.3-34-7.8-51.2-7.3l0.1,0.1L10,210.4c11.5,0.3,22.9,0.7,34.4,1.7c11.9,1.1,23.8,3,35.7,6.3
		c8.5,2,15.4,5.5,21.7,9.1c0.6-1.4,1.1-2.8,1.8-4.1c-11.8-5.6-24-9.8-36.6-12.7c-15-3.4-30.6-4.9-46.7-4.7l0-1.8
		c16.2-0.2,31.9,1.3,47.1,4.7c12.7,2.9,25,7.1,37,12.8c0.7-1.4,1.5-2.8,2.3-4.1c-11.8-5.7-23.9-9.9-36.5-12.8
		c-15-3.5-30.6-5.1-46.6-5l0-1.8c16.2-0.1,31.9,1.5,47.1,5c12.7,3,25.1,7.3,37,13.1c0.6-0.9,1.1-1.7,1.7-2.5
		c-12.1-6.9-24.7-12-37.8-15.3c-13.7-3.5-27.9-5.1-42.5-5l0-1.8c14.8-0.1,29.1,1.5,43,5c13.3,3.4,26.1,8.5,38.4,15.6
		c0.2-0.3,0.4-0.5,0.6-0.8c1-1.2,2-2.3,3-3.3c-12.3-7.1-25.2-12.3-38.5-15.7c-13.7-3.5-27.9-5.1-42.5-5l0-1.8
		c14.8-0.1,29.1,1.5,43,5c13.6,3.5,26.7,8.8,39.3,16.1c2.7-2.5,5.6-4.7,8.9-6.6C110.8,192.7,97.3,186.7,83.6,182.5L83.6,182.5z"/>
	<path class="st4" d="M131.2,231.4c-5.2,0-10.4,0-15.6,0c3.5-5.4,7.3-10.2,13.5-11.4c0-50.2,0-100.4,0-150.6
		c-24.3-27.4-12-59.1,2.1-69.4c14,10.3,26.4,41.9,2.1,69.4c0,50.2,0,100.4,0,150.6c6.2,1.2,10,6,13.5,11.4
		C141.6,231.4,136.4,231.4,131.2,231.4L131.2,231.4z M134.4,177.1c11-32.3,32.9-46.8,61-51.3C186,156.9,166.3,174.9,134.4,177.1
		L134.4,177.1z M134.4,124.6c11-32.3,32.9-46.8,61-51.3C186,104.3,166.3,122.3,134.4,124.6L134.4,124.6z M128,124.6
		c-11-32.3-32.9-46.8-61-51.3C76.5,104.3,96.1,122.3,128,124.6L128,124.6z M128,177.1c-11-32.3-32.9-46.8-61-51.3
		C76.5,156.9,96.1,174.9,128,177.1L128,177.1z"/>
	<polygon class="st5" points="76.8,81 121.8,118.3 120.6,119.6 75.7,82.3 76.8,81 	"/>
	<polygon class="st5" points="76.8,133.5 121.8,170.8 120.6,172.2 75.7,134.9 76.8,133.5 	"/>
	<polygon class="st5" points="185.6,81 140.7,118.3 141.8,119.6 186.7,82.3 185.6,81 	"/>
	<polygon class="st5" points="185.6,133.5 140.7,170.8 141.8,172.2 186.7,134.9 185.6,133.5 	"/>
</g>
</svg>
