<svg id="Layer_1" xmlns="http://www.w3.org/2000/svg" viewBox="0 0 86.8 94"><style>.st0{fill:#C22353;}</style><path class="st0" d="M86 31.2c-.5-4.8-4.1-11.1-7.9-14 0 0-5.8-4.3-13-8.5-7.2-4.3-13.8-7.2-13.8-7.2C49.1.5 46.2 0 43.4 0c-2.9 0-5.8.5-7.9 1.5 0 0-6.5 2.9-13.8 7.2-7.2 4.3-13 8.5-13 8.5-3.9 2.9-7.4 9.2-7.9 14 0 0-.8 7.2-.8 15.8 0 8.5.8 15.8.8 15.8.5 4.8 4.1 11.1 7.9 14 0 0 5.8 4.3 13 8.6s13.8 7.2 13.8 7.2c2.2 1 5.1 1.5 7.9 1.5 2.9 0 5.8-.5 7.9-1.5 0 0 6.5-2.9 13.8-7.2 7.2-4.3 13-8.6 13-8.6 3.9-2.9 7.4-9.2 7.9-14 0 0 .8-7.2.8-15.8 0-8.5-.8-15.8-.8-15.8zm-4 31.1c-.4 3.8-3.4 9-6.3 11.2-.1 0-5.7 4.2-12.6 8.3-6.9 4.1-13.3 7-13.4 7-1.6.7-3.9 1.1-6.3 1.1s-4.7-.4-6.3-1.1c-.1 0-6.4-2.9-13.4-7-6.9-4.1-12.6-8.3-12.6-8.3-3-2.2-5.9-7.5-6.3-11.2-.1 0-.8-7.1-.8-15.3 0-8.2.7-15.3.7-15.3.4-3.8 3.4-9 6.3-11.2.1 0 5.7-4.2 12.6-8.3 6.9-4.1 13.3-7 13.4-7 1.7-.8 4-1.2 6.4-1.2 2.4 0 4.7.4 6.3 1.1.1 0 6.4 2.9 13.4 7 6.9 4.1 12.6 8.3 12.6 8.3 3 2.2 5.9 7.5 6.3 11.2 0 .1.7 7.1.7 15.3.1 8.3-.7 15.4-.7 15.4z"/><path class="st0" d="M47.8 48.3c1.6-1.6 2.7-3.9 2.7-6.5 0-5-3.9-9-8.7-9-4.8 0-8.7 4-8.7 9 0 2.6 1 4.9 2.7 6.5-3.1 1.3-5.7 3.6-7.1 6.6-.6 1.3-.5 2.8.2 4 .4.6 1.2 1.9 5.3 3.2 1.4.5 4.3 1.2 7.4 1.2h.1c4.1 0 11.1-1.7 12.9-4.7.8-1.3.8-2.8.2-4.1-1.4-2.7-3.9-4.9-7-6.2zm-6-11.4c2.6 0 4.7 2.2 4.7 5s-2.1 5-4.7 5-4.7-2.2-4.7-5 2.1-5 4.7-5zm0 22.6c-.1 0-.1 0 0 0-4.9 0-9.7-2.2-9.5-2.8 1.6-3.3 5.3-5.6 9.6-5.6 4.2 0 7.9 2.2 9.5 5.4.2.6-4.6 2.9-9.6 3z"/><path class="st0" d="M59 22.6v-4.1c0-1.4-.6-2.7-1.6-3.5-1-.8-2.4-1-3.8-.6l-29.1 8.2c-.6.2-1 .6-1.3 1.1-.7.7-1.2 1.7-1.2 2.9v45c0 2.2 1.8 4 4 4h32c2.2 0 4-1.8 4-4v-45c0-2-1.3-3.6-3-4zm-4.3-4.4h.3s.1.1.1.3v4H39.5l15.2-4.3zM58 71.5H26v-45h32v45z"/></svg>