<?xml version="1.0" encoding="UTF-8" standalone="no"?>
<svg width="101px" height="110px" viewBox="0 0 101 110" version="1.1" xmlns="http://www.w3.org/2000/svg" xmlns:xlink="http://www.w3.org/1999/xlink" xmlns:sketch="http://www.bohemiancoding.com/sketch/ns">
    <!-- Generator: Sketch 3.1.1 (8761) - http://www.bohemiancoding.com/sketch -->
    <title>shkola@1x</title>
    <desc>Created with Sketch.</desc>
    <defs></defs>
    <g id="Page-1" stroke="none" stroke-width="1" fill="none" fill-rule="evenodd" sketch:type="MSPage">
        <g id="02-7" sketch:type="MSArtboardGroup" transform="translate(-722.000000, -599.000000)" fill="#E77A2B">
            <g id="shkola" sketch:type="MSLayerGroup" transform="translate(722.000000, 600.000000)">
                <path d="M99.1364205,35.7835789 C98.5487841,30.1805263 94.4513977,22.8753684 90.0257614,19.5510526 C90.0257614,19.5510526 83.4182955,14.5825263 75.1190795,9.65452632 C66.8164205,4.71957895 59.3309432,1.31189474 59.3309432,1.31189474 C56.82775,0.171368421 53.5280341,-0.398315789 50.2260227,-0.398315789 C46.9240114,-0.398315789 43.6197045,0.171368421 41.1176591,1.31189474 C41.1176591,1.31189474 33.6310341,4.71957895 25.3295227,9.65452632 C17.0291591,14.5825263 10.4205455,19.5510526 10.4205455,19.5510526 C5.99835227,22.8753684 1.89522727,30.1805263 1.31218182,35.7835789 C1.31218182,35.7835789 0.436465909,44.1609474 0.436465909,54.0227368 C0.436465909,63.888 1.31218182,72.2642105 1.31218182,72.2642105 C1.89522727,77.8661053 5.99835227,85.1712632 10.41825,88.4932632 C10.41825,88.4932632 17.0291591,93.4664211 25.3295227,98.4002105 C33.6310341,103.328211 41.1176591,106.737053 41.1176591,106.737053 C43.6197045,107.874105 46.9240114,108.443789 50.2260227,108.443789 C53.5280341,108.443789 56.82775,107.874105 59.3309432,106.737053 C59.3309432,106.737053 66.8164205,103.328211 75.1167841,98.4002105 C83.4182955,93.4664211 90.0257614,88.4932632 90.0257614,88.4932632 C94.4513977,85.1712632 98.5487841,77.8661053 99.1364205,72.2642105 C99.1364205,72.2642105 100.010989,63.888 100.010989,54.0227368 C100.010989,44.1609474 99.1364205,35.7835789 99.1364205,35.7835789 L99.1364205,35.7835789 Z M94.5719091,71.7755789 C94.1151136,76.1315789 90.7121023,82.2058947 87.2849886,84.7798947 C87.2218636,84.8273684 80.7567159,89.6708421 72.7903409,94.4089474 C64.8182273,99.1401053 57.5152386,102.482947 57.446375,102.514211 C55.6306705,103.339789 52.9989318,103.812211 50.2260227,103.812211 C47.4531136,103.812211 44.821375,103.339789 43.0056705,102.514211 C42.9310682,102.482947 35.630375,99.1401053 27.6605568,94.4089474 C19.6895909,89.6708421 13.2244432,84.8273684 13.1624659,84.7775789 C9.7365,82.2035789 6.33463636,76.1292632 5.87669318,71.7778947 C5.86980682,71.6968421 5.027375,63.5325263 5.027375,54.0227368 C5.027375,44.5407368 5.86980682,36.3509474 5.87669318,36.2675789 C6.33463636,31.9173684 9.7365,25.8395789 13.1647614,23.2644211 C13.2290341,23.2169474 19.6654886,18.3908421 27.6605568,13.6434737 C35.630375,8.90536842 42.9310682,5.566 43.0056705,5.53357895 C44.821375,4.70684211 47.4531136,4.23326316 50.2260227,4.23326316 C52.9989318,4.23326316 55.628375,4.70684211 57.4440795,5.53357895 C57.5152386,5.566 64.7918295,8.89263158 72.7903409,13.6457895 C80.7590114,18.3769474 87.2218636,23.2169474 87.2872841,23.2644211 C90.7098068,25.8384211 94.1151136,31.9173684 94.5719091,36.2698947 C94.5765,36.3509474 95.4200795,44.5407368 95.4200795,54.0227368 C95.4200795,63.5058947 94.5765,71.6968421 94.5719091,71.7755789 L94.5719091,71.7755789 Z" id="Fill-1" sketch:type="MSShapeGroup"></path>
                <path d="M76.4527386,35.8136842 C72.88675,33.8464211 68.6160568,32.8054737 64.1077841,32.8054737 C58.9751477,32.8054737 53.3994886,34.2458947 50.2260227,37.3803158 C47.0491136,34.2458947 41.4746023,32.8054737 36.3408182,32.8054737 C31.8279545,32.8054737 27.5607045,33.8464211 23.9935682,35.8136842 C23.2590227,36.2201053 22.8010795,36.9982105 22.8010795,37.8446316 L22.8010795,71.8751579 C22.8010795,72.6914737 23.2291818,73.4498947 23.927,73.8678947 C24.621375,74.2835789 25.4890568,74.2997895 26.1995,73.9061053 C28.4077273,72.6868421 30.9740455,72.0696842 33.8364773,72.0696842 C39.7633409,72.0696842 45.7395568,74.8034737 48.154375,76.9386316 C48.4080227,77.396 48.7959545,77.7757895 49.2975114,77.9749474 C49.5729659,78.0826316 49.8553068,78.1358947 50.1399432,78.1358947 C50.1697841,78.1358947 50.1961818,78.1289474 50.2260227,78.1266316 C50.2524205,78.1289474 50.2822614,78.1358947 50.3086591,78.1358947 C50.591,78.1358947 50.8756364,78.0826316 51.1487955,77.9749474 C51.6537955,77.7757895 52.0417273,77.396 52.2942273,76.9386316 C54.70675,74.8034737 60.6829659,72.0696842 66.6098295,72.0696842 C69.4699659,72.0696842 72.040875,72.6868421 74.2491023,73.9061053 C74.95725,74.2997895 75.8226364,74.2835789 76.5181591,73.8678947 C77.217125,73.4498947 77.6452273,72.6914737 77.6452273,71.8751579 L77.6452273,37.8446316 C77.6452273,36.9982105 77.1884318,36.2201053 76.4527386,35.8136842 L76.4527386,35.8136842 Z M27.3919886,68.3875789 L27.3919886,39.2781053 C30.0237273,38.0843158 33.1489886,37.4370526 36.3408182,37.4370526 C41.7075909,37.4370526 46.5246023,39.3163158 47.8444886,41.8150526 L47.8444886,71.1723158 C44.2899773,69.1772632 39.2503068,67.4381053 33.8364773,67.4381053 C31.5525,67.4381053 29.3959205,67.7576842 27.3919886,68.3875789 L27.3919886,68.3875789 Z M73.0543182,68.3875789 C71.0480909,67.7576842 68.8961023,67.4381053 66.6098295,67.4381053 C61.196,67.4381053 56.1574773,69.1749474 52.6041136,71.17 L52.6041136,41.8150526 C53.9217045,39.3163158 58.7398636,37.4370526 64.1077841,37.4370526 C67.3007614,37.4370526 70.424875,38.0843158 73.0543182,39.2781053 L73.0543182,68.3875789 L73.0543182,68.3875789 Z" id="Fill-2" sketch:type="MSShapeGroup"></path>
            </g>
        </g>
    </g>
</svg>