<?xml version="1.0" encoding="utf-8"?>
<!-- Generator: Adobe Illustrator 19.0.0, SVG Export Plug-In . SVG Version: 6.00 Build 0)  -->
<svg version="1.1" id="Layer_1" xmlns="http://www.w3.org/2000/svg" xmlns:xlink="http://www.w3.org/1999/xlink" x="0px" y="0px"
	 viewBox="0 0 86.8 94" style="enable-background:new 0 0 86.8 94;" xml:space="preserve">
<style type="text/css">
	.st0{fill:#5CC4CA;}
</style>
<g>
	<path class="st0" d="M86,31.2c-0.5-4.8-4.1-11.1-7.9-14c0,0-5.8-4.3-13-8.5c-7.2-4.3-13.8-7.2-13.8-7.2c-2.2-1-5.1-1.5-7.9-1.5
		s-5.8,0.5-7.9,1.5c0,0-6.5,2.9-13.8,7.2c-7.2,4.3-13,8.5-13,8.5c-3.9,2.9-7.4,9.2-7.9,14c0,0-0.8,7.2-0.8,15.8
		c0,8.5,0.8,15.8,0.8,15.8c0.5,4.8,4.1,11.1,7.9,14c0,0,5.8,4.3,13,8.6c7.2,4.3,13.8,7.2,13.8,7.2c2.2,1,5.1,1.5,7.9,1.5
		s5.8-0.5,7.9-1.5c0,0,6.5-2.9,13.8-7.2c7.2-4.3,13-8.6,13-8.6c3.9-2.9,7.4-9.2,7.9-14c0,0,0.8-7.2,0.8-15.8
		C86.8,38.5,86,31.2,86,31.2z M82,62.3c-0.4,3.8-3.4,9-6.3,11.2c-0.1,0-5.7,4.2-12.6,8.3c-6.9,4.1-13.3,7-13.4,7
		c-1.6,0.7-3.9,1.1-6.3,1.1c-2.4,0-4.7-0.4-6.3-1.1c-0.1,0-6.4-2.9-13.4-7c-6.9-4.1-12.6-8.3-12.6-8.3c-3-2.2-5.9-7.5-6.3-11.2
		C4.7,62.3,4,55.2,4,47c0-8.2,0.7-15.3,0.7-15.3c0.4-3.8,3.4-9,6.3-11.2c0.1,0,5.7-4.2,12.6-8.3c6.9-4.1,13.3-7,13.4-7
		C38.7,4.4,41,4,43.4,4c2.4,0,4.7,0.4,6.3,1.1c0.1,0,6.4,2.9,13.4,7c6.9,4.1,12.6,8.3,12.6,8.3c3,2.2,5.9,7.5,6.3,11.2
		c0,0.1,0.7,7.1,0.7,15.3C82.8,55.2,82,62.3,82,62.3z"/>
	<path class="st0" d="M69.2,29.8c-4.4-1.6-8,1.2-11,4.2c-0.5,0.5-1.4,1.4-2.5,2.6c-3.9,0-10.2,0-13.4,0l0-15.1c0,0,0-0.1,0-0.1
		c0-0.9-0.6-1.7-1.5-1.9c-1.4-0.4-2.9-0.5-4.2-0.5c-9.6,0-17.4,7.8-17.4,17.4c0,5.5,2.7,10.7,7,13.9c4.2,3.4,9,3.5,12.4,3.5
		c-0.8,0.8-1.5,1.5-2.2,2.3c-1.4-0.9-3.1-1.4-4.8-1.4c-5,0-9.1,4.1-9.1,9.1c0,5,4.1,9.1,9.1,9.1c5,0,9.1-4.1,9.1-9.1
		c0-1.8-0.5-3.5-1.4-4.9c1.1-1.1,2.3-2.3,3.5-3.5c0.1,0.1,0.1,0.1,0.2,0.2l3.2,3.2c-0.9,1.4-1.5,3.1-1.5,5c0,5,4.1,9.1,9.1,9.1
		c5,0,9.1-4.1,9.1-9.1c0-5-4.1-9.1-9.1-9.1c-1.7,0-3.4,0.5-4.7,1.3l-2.2-2.2h4.4c6.1,0,11-5,11-11.1c0-1.6,0-2.7-0.2-3.6
		c-0.2-0.9-0.6-1.5-1.2-2c0.1-0.1,0.2-0.2,0.2-0.2c3.7-3.7,5.5-3.8,6.8-3.3c0.8,0.3,1.2,1.2,1.2,1.8c0,0.5-0.3,0.6-0.4,0.7
		c-0.3,0.1-0.5,0.2-0.6,0.2c-0.3-0.9-1.3-1.5-2.3-1.3c-1.1,0.2-1.7,1.3-1.5,2.4c0.1,0.3,0.4,1.7,1.9,2.4c0.8,0.4,2.1,0.8,4,0
		c1.8-0.7,3-2.4,3-4.4C73.1,33,71.5,30.7,69.2,29.8z M31.5,68.8c-2.8,0-5.1-2.3-5.1-5.1c0-2.8,2.3-5.1,5.1-5.1
		c0.7,0,1.3,0.1,1.9,0.4c-1.5,1.5-2.5,2.5-3,3c-0.5,0.4-0.8,0.9-0.8,1.6c0,1.1,0.9,2,2,2c0.5,0,0.9-0.2,1.3-0.5l0,0
		c0,0,1.3-1.3,3.3-3.3c0.2,0.6,0.4,1.2,0.4,1.9C36.6,66.5,34.4,68.8,31.5,68.8z M49.1,61.6l3.4,3.4c0.4,0.4,0.9,0.6,1.4,0.6
		s1-0.2,1.4-0.6c0.8-0.8,0.8-2,0-2.8L52,58.9c0.5-0.2,1.1-0.3,1.8-0.3c2.8,0,5.1,2.3,5.1,5.1c0,2.8-2.3,5.1-5.1,5.1
		c-2.8,0-5.1-2.3-5.1-5.1C48.6,62.9,48.8,62.3,49.1,61.6z M42.6,49.7H39c-3.1,0-7,0-10.4-2.7c-3.4-2.5-5.5-6.5-5.5-10.8
		c0-7.4,6-13.4,13.4-13.4c0.6,0,1.2,0,1.8,0.1v15.6c0,0.5,0.2,1,0.6,1.4c0.4,0.4,0.9,0.6,1.4,0.6h0c0,0,6.1,0,11.4,0
		C48.9,43.4,45.7,46.6,42.6,49.7z M51.2,49.7h-2.9c3.3-3.4,6.6-6.6,9.1-9.1c0.3,0,0.6,0,0.9,0c0,0.5,0,1.3,0,2.1
		C58.2,46.6,55.1,49.7,51.2,49.7z"/>
</g>
</svg>
