<svg id="Layer_1" xmlns="http://www.w3.org/2000/svg" viewBox="0 0 86.8 94"><style>.st0{fill:#5CC4CA;}</style><path id="XMLID_382_" class="st0" d="M86 31.2c-.5-4.8-4.1-11.1-7.9-14 0 0-5.8-4.3-13-8.5-7.2-4.3-13.8-7.2-13.8-7.2C49.1.5 46.2 0 43.4 0c-2.9 0-5.8.5-7.9 1.5 0 0-6.5 2.9-13.8 7.2-7.2 4.3-13 8.5-13 8.5-3.9 2.9-7.4 9.2-7.9 14 0 0-.8 7.2-.8 15.8 0 8.5.8 15.8.8 15.8.5 4.8 4.1 11.1 7.9 14 0 0 5.8 4.3 13 8.6s13.8 7.2 13.8 7.2c2.2 1 5.1 1.5 7.9 1.5 2.9 0 5.8-.5 7.9-1.5 0 0 6.5-2.9 13.8-7.2 7.2-4.3 13-8.6 13-8.6 3.9-2.9 7.4-9.2 7.9-14 0 0 .8-7.2.8-15.8 0-8.5-.8-15.8-.8-15.8zm-4 31.1c-.4 3.8-3.4 9-6.3 11.2-.1 0-5.7 4.2-12.6 8.3-6.9 4.1-13.3 7-13.4 7-1.6.7-3.9 1.1-6.3 1.1s-4.7-.4-6.3-1.1c-.1 0-6.4-2.9-13.4-7-6.9-4.1-12.6-8.3-12.6-8.3-3-2.2-5.9-7.5-6.3-11.2-.1 0-.8-7.1-.8-15.3 0-8.2.7-15.3.7-15.3.4-3.8 3.4-9 6.3-11.2.1 0 5.7-4.2 12.6-8.3 6.9-4.1 13.3-7 13.4-7 1.7-.8 4-1.2 6.4-1.2s4.7.4 6.3 1.1c.1 0 6.4 2.9 13.4 7 6.9 4.1 12.6 8.3 12.6 8.3 3 2.2 5.9 7.5 6.3 11.2 0 .1.7 7.1.7 15.3.1 8.3-.7 15.4-.7 15.4z"/><path id="XMLID_379_" class="st0" d="M62.9 36.6h-8.6V28c0-2.2-1.8-4-4-4H37.6c-2.2 0-4 1.8-4 4v8.6H25c-2.2 0-4 1.8-4 4v12.6c0 2.2 1.8 4 4 4h8.6v8.6c0 2.2 1.8 4 4 4h12.6c2.2 0 4-1.8 4-4v-8.6h8.6c2.2 0 4-1.8 4-4V40.6c.1-2.2-1.7-4-3.9-4zm0 16.6H50.2v12.6H37.6V53.2H25V40.6h12.6V28h12.6v12.6h12.6v12.6z"/></svg>