<?xml version="1.0" encoding="utf-8"?>
<!-- Generator: Adobe Illustrator 16.0.0, SVG Export Plug-In . SVG Version: 6.00 Build 0)  -->
<!DOCTYPE svg PUBLIC "-//W3C//DTD SVG 1.1//EN" "http://www.w3.org/Graphics/SVG/1.1/DTD/svg11.dtd">
<svg version="1.1" id="Слой_1" xmlns:sketch="http://www.bohemiancoding.com/sketch/ns"
	 xmlns="http://www.w3.org/2000/svg" xmlns:xlink="http://www.w3.org/1999/xlink" x="0px" y="0px" width="44px" height="44px"
	 viewBox="0 0 87 95" enable-background="new 0 0 87 95" xml:space="preserve">
<title>jkh_nut@1x</title>
<desc>Created with Sketch.</desc>
<g id="Итоговый1" sketch:type="MSPage">
	<g id="service_gkh_desk" transform="translate(-413.000000, -405.000000)" sketch:type="MSArtboardGroup">
		<g id="_x31_" transform="translate(281.000000, 226.000000)" sketch:type="MSLayerGroup">
			<g id="_x30_0_x5F_Main_x5F_Title-2" transform="translate(132.000000, 179.000000)" sketch:type="MSShapeGroup">
				<g id="jkh_nut">
					<path id="Fill-1" fill="#0B8D66" d="M43.449,4.131c2.414,0,4.708,0.409,6.289,1.122c0.062,0.029,6.406,2.902,13.371,7.005
						c6.945,4.088,12.576,8.268,12.631,8.308c2.982,2.224,5.949,7.473,6.346,11.232c0.008,0.071,0.742,7.144,0.742,15.333
						c0,8.189-0.734,15.262-0.741,15.331c-0.397,3.761-3.362,9.009-6.346,11.231c-0.056,0.041-5.667,4.209-12.632,8.312
						c-6.944,4.088-13.31,6.975-13.371,7.001c-1.581,0.713-3.873,1.122-6.289,1.122s-4.71-0.409-6.29-1.121
						c-0.063-0.027-6.405-2.9-13.371-7.001c-6.945-4.092-12.575-8.272-12.632-8.315c-2.983-2.222-5.948-7.467-6.344-11.229
						c-0.008-0.069-0.744-7.118-0.744-15.331c0-8.188,0.736-15.261,0.744-15.333c0.396-3.76,3.362-9.008,6.348-11.231
						c0.056-0.042,5.683-4.222,12.627-8.31c6.947-4.09,13.309-6.975,13.371-7.003C38.74,4.54,41.033,4.131,43.449,4.131
						 M43.449,0.131c-2.876,0-5.753,0.492-7.935,1.476c0,0-6.522,2.944-13.756,7.203c-7.233,4.258-12.989,8.549-12.989,8.549
						c-3.855,2.871-7.425,9.18-7.935,14.02c0,0-0.766,7.234-0.766,15.752c0,8.52,0.766,15.752,0.766,15.752
						c0.51,4.84,4.08,11.148,7.933,14.018c0,0,5.758,4.291,12.991,8.553c7.234,4.258,13.756,7.201,13.756,7.201
						c2.182,0.984,5.059,1.475,7.935,1.475s5.752-0.49,7.934-1.475c0,0,6.523-2.943,13.756-7.201
						c7.232-4.262,12.992-8.553,12.992-8.553c3.852-2.869,7.422-9.178,7.934-14.018c0,0,0.764-7.232,0.764-15.752
						c0-8.518-0.764-15.752-0.764-15.752c-0.512-4.84-4.082-11.149-7.934-14.02c0,0-5.76-4.291-12.992-8.549
						c-7.232-4.259-13.756-7.203-13.756-7.203C49.201,0.623,46.325,0.131,43.449,0.131"/>
					<path fill="#0B8D66" d="M26.521,75.568c-3.756,0-6.812-3.056-6.812-6.812c0-3.137,4.036-8.242,5.273-9.732
						c0.76-0.916,2.318-0.916,3.078,0c1.237,1.49,5.274,6.596,5.274,9.732C33.334,72.513,30.278,75.568,26.521,75.568z
						 M26.521,63.574c-1.517,2.104-2.812,4.327-2.812,5.182c0,1.551,1.261,2.812,2.812,2.812c1.551,0,2.813-1.262,2.813-2.812
						C29.334,67.901,28.039,65.679,26.521,63.574z M34.644,56.105H22.978c-1.104,0-2-0.896-2-2v-3.768
						c0-8.664,7.05-15.713,15.715-15.713h5.487c1.378-1.071,3-1.758,4.712-2.003V30.41h-7.38c-3.28,0-5.948-2.667-5.948-5.945
						c0-3.279,2.668-5.947,5.948-5.947h17.675c3.278,0,5.945,2.667,5.945,5.947c0,3.278-2.667,5.945-5.945,5.945h-6.295v2.451
						c1.279,0.343,2.483,0.94,3.544,1.764h8.952c1.104,0,2,0.896,2,2v11.664c0,1.104-0.896,2-2,2h-8.721
						c-1.793,1.477-4.021,2.281-6.359,2.281c-2.34,0-4.568-0.805-6.36-2.281h-4.107c-0.373,0.166-1.031,0.824-1.197,1.197v2.619
						C36.644,55.21,35.749,56.105,34.644,56.105z M24.978,52.105h7.666v-0.752c0-2.225,2.84-5.064,5.065-5.064h5.002
						c0.521,0,1.022,0.204,1.396,0.567c1.135,1.105,2.627,1.714,4.202,1.714c1.574,0,3.066-0.609,4.203-1.715
						c0.373-0.363,0.874-0.566,1.395-0.566h7.482v-7.664h-7.68c-0.499,0-0.98-0.187-1.349-0.523
						c-1.116-1.019-2.555-1.581-4.052-1.581s-2.936,0.562-4.052,1.581c-0.368,0.337-0.849,0.523-1.349,0.523h-6.215
						c-6.459,0-11.715,5.254-11.715,11.713V52.105z M39.512,22.518c-1.074,0-1.948,0.874-1.948,1.947
						c0,1.073,0.874,1.945,1.948,1.945h17.675c1.072,0,1.945-0.873,1.945-1.945c0-1.073-0.873-1.947-1.945-1.947H39.512z"/>
				</g>
			</g>
		</g>
	</g>
</g>
</svg>
