<?xml version="1.0" encoding="utf-8"?>
<!-- Generator: Adobe Illustrator 19.0.0, SVG Export Plug-In . SVG Version: 6.00 Build 0)  -->
<svg version="1.1" id="Layer_1" xmlns="http://www.w3.org/2000/svg" xmlns:xlink="http://www.w3.org/1999/xlink" x="0px" y="0px"
	 viewBox="0 0 86.8 94" style="enable-background:new 0 0 86.8 94;" xml:space="preserve">
<style type="text/css">
	.st0{fill:#2E7DAF;}
</style>
<g>
	<path class="st0" d="M86,31.2c-0.5-4.8-4.1-11.1-7.9-14c0,0-5.8-4.3-13-8.5c-7.2-4.3-13.8-7.2-13.8-7.2c-2.2-1-5.1-1.5-7.9-1.5
		c-2.9,0-5.8,0.5-7.9,1.5c0,0-6.5,2.9-13.8,7.2c-7.2,4.3-13,8.5-13,8.5c-3.9,2.9-7.4,9.2-7.9,14c0,0-0.8,7.2-0.8,15.8
		c0,8.5,0.8,15.8,0.8,15.8c0.5,4.8,4.1,11.1,7.9,14c0,0,5.8,4.3,13,8.6c7.2,4.3,13.8,7.2,13.8,7.2c2.2,1,5.1,1.5,7.9,1.5
		c2.9,0,5.8-0.5,7.9-1.5c0,0,6.5-2.9,13.8-7.2c7.2-4.3,13-8.6,13-8.6c3.9-2.9,7.4-9.2,7.9-14c0,0,0.8-7.2,0.8-15.8
		C86.8,38.5,86,31.2,86,31.2z M82,62.3c-0.4,3.8-3.4,9-6.3,11.2c-0.1,0-5.7,4.2-12.6,8.3c-6.9,4.1-13.3,7-13.4,7
		c-1.6,0.7-3.9,1.1-6.3,1.1c-2.4,0-4.7-0.4-6.3-1.1c-0.1,0-6.4-2.9-13.4-7c-6.9-4.1-12.6-8.3-12.6-8.3c-3-2.2-5.9-7.5-6.3-11.2
		C4.7,62.3,4,55.2,4,47c0-8.2,0.7-15.3,0.7-15.3c0.4-3.8,3.4-9,6.3-11.2c0.1,0,5.7-4.2,12.6-8.3c6.9-4.1,13.3-7,13.4-7
		C38.7,4.4,41,4,43.4,4c2.4,0,4.7,0.4,6.3,1.1c0.1,0,6.4,2.9,13.4,7c6.9,4.1,12.6,8.3,12.6,8.3c3,2.2,5.9,7.5,6.3,11.2
		c0,0.1,0.7,7.1,0.7,15.3C82.8,55.2,82,62.3,82,62.3z"/>
	<path class="st0" d="M57.5,61.9H45.4V30.6c5.6,0.3,11.3,1.9,18.3,4.9c0.2,0.1,0.5,0.2,0.8,0.2c0.8,0,1.5-0.5,1.8-1.2
		c0.4-1-0.1-2.2-1.1-2.6c-7.5-3.2-13.7-4.9-19.8-5.2v-5.2c0-1.1-0.9-2-2-2c-1.1,0-2,0.9-2,2v5.2c-6.1,0.3-12.3,2-19.8,5.2
		c-1,0.4-1.5,1.6-1.1,2.6c0.4,1,1.6,1.5,2.6,1.1c7-2.9,12.7-4.6,18.3-4.9v31.3H29.2c-1.1,0-2,0.9-2,2c0,1.1,0.9,2,2,2h28.3
		c1.1,0,2-0.9,2-2C59.5,62.8,58.6,61.9,57.5,61.9z"/>
	<path class="st0" d="M35.9,52.9c1.1-1.2,1.3-3,0.6-4.4l-5.4-11.1c-0.7-1.4-2.1-2.2-3.6-2.2c-1.5,0-2.9,0.9-3.6,2.2l-5.4,11.1
		C17.8,50,18,51.7,19.1,53c0.5,0.5,3.2,3.1,8.3,3.1C32.8,56.1,35.4,53.5,35.9,52.9z M27.5,39.1l5.4,11.1c0,0-1.7,1.9-5.5,1.9
		c-3.6,0-5.3-1.9-5.3-1.9L27.5,39.1z"/>
	<path class="st0" d="M63.1,37.4c-0.7-1.4-2.1-2.2-3.6-2.2c-1.5,0-2.9,0.9-3.6,2.2l-5.4,11.1C49.8,50,50,51.7,51.1,53
		c0.5,0.5,3.2,3.1,8.3,3.1c5.3,0,8-2.6,8.5-3.2c1.1-1.2,1.3-3,0.6-4.4L63.1,37.4z M59.4,52.1c-3.6,0-5.3-1.9-5.3-1.9l5.4-11.1
		l5.4,11.1C64.9,50.2,63.2,52.1,59.4,52.1z"/>
</g>
</svg>
