<?xml version="1.0" encoding="utf-8"?>
<!-- Generator: Adobe Illustrator 19.0.0, SVG Export Plug-In . SVG Version: 6.00 Build 0)  -->
<svg version="1.1" id="Layer_1" xmlns="http://www.w3.org/2000/svg" xmlns:xlink="http://www.w3.org/1999/xlink" x="0px" y="0px"
	 viewBox="0 0 86.8 94" style="enable-background:new 0 0 86.8 94;" xml:space="preserve">
<style type="text/css">
	.st0{fill:#768089;}
	.st1{fill:none;stroke:#768089;stroke-width:4;stroke-linecap:round;stroke-linejoin:round;stroke-miterlimit:10;}
	.st2{fill:#FFFFFF;stroke:#768089;stroke-width:4;stroke-linecap:round;stroke-linejoin:round;stroke-miterlimit:10;}
</style>
<g>
	<g id="XMLID_1018_">
		<path id="XMLID_1019_" class="st0" d="M43.4,4c2.4,0,4.7,0.4,6.3,1.1c0.1,0,6.4,2.9,13.4,7c6.9,4.1,12.6,8.3,12.6,8.3
			c3,2.2,5.9,7.5,6.3,11.2c0,0.1,0.7,7.1,0.7,15.3c0,8.2-0.7,15.3-0.7,15.3c-0.4,3.8-3.4,9-6.3,11.2c-0.1,0-5.7,4.2-12.6,8.3
			c-6.9,4.1-13.3,7-13.4,7c-1.6,0.7-3.9,1.1-6.3,1.1c-2.4,0-4.7-0.4-6.3-1.1c-0.1,0-6.4-2.9-13.4-7c-6.9-4.1-12.6-8.3-12.6-8.3
			c-3-2.2-5.9-7.5-6.3-11.2C4.7,62.3,4,55.2,4,47c0-8.2,0.7-15.3,0.7-15.3c0.4-3.8,3.4-9,6.3-11.2c0.1,0,5.7-4.2,12.6-8.3
			c6.9-4.1,13.3-7,13.4-7C38.7,4.4,41,4,43.4,4 M43.4,0c-2.9,0-5.8,0.5-7.9,1.5c0,0-6.5,2.9-13.8,7.2c-7.2,4.3-13,8.5-13,8.5
			c-3.9,2.9-7.4,9.2-7.9,14c0,0-0.8,7.2-0.8,15.8c0,8.5,0.8,15.8,0.8,15.8c0.5,4.8,4.1,11.1,7.9,14c0,0,5.8,4.3,13,8.6
			c7.2,4.3,13.8,7.2,13.8,7.2c2.2,1,5.1,1.5,7.9,1.5s5.8-0.5,7.9-1.5c0,0,6.5-2.9,13.8-7.2c7.2-4.3,13-8.6,13-8.6
			c3.9-2.9,7.4-9.2,7.9-14c0,0,0.8-7.2,0.8-15.8c0-8.5-0.8-15.8-0.8-15.8c-0.5-4.8-4.1-11.1-7.9-14c0,0-5.8-4.3-13-8.5
			c-7.2-4.3-13.8-7.2-13.8-7.2C49.1,0.5,46.3,0,43.4,0L43.4,0z"/>
	</g>
</g>
<polygon class="st1" points="20,69 20,62.8 20,22.8 66.7,22.8 66.7,69 "/>
<circle class="st2" cx="63.7" cy="59.8" r="9.6"/>
<polyline class="st2" points="59.9,59.4 63.1,62.7 67.6,58.2 "/>
<line class="st1" x1="27.8" y1="53.3" x2="46.9" y2="53.3"/>
<line class="st1" x1="52.1" y1="34.2" x2="61.7" y2="34.2"/>
<line class="st1" x1="52.1" y1="42.2" x2="61.7" y2="42.2"/>
<line class="st1" x1="27.8" y1="60.8" x2="46.9" y2="60.8"/>
<circle class="st1" cx="34.9" cy="38.8" r="6.5"/>
</svg>
