<?xml version="1.0" encoding="utf-8"?>
<!-- Generator: Adobe Illustrator 19.0.0, SVG Export Plug-In . SVG Version: 6.00 Build 0)  -->
<svg version="1.1" id="Layer_1" xmlns="http://www.w3.org/2000/svg" xmlns:xlink="http://www.w3.org/1999/xlink" x="0px" y="0px"
	 viewBox="0 0 86.8 94" style="enable-background:new 0 0 86.8 94;" xml:space="preserve">
<style type="text/css">
	.st0{fill:#0B8D66;}
</style>
<g id="XMLID_604_">
	<path id="XMLID_620_" class="st0" d="M70.9,39.1L44.8,17.8c-0.7-0.6-1.8-0.6-2.5,0L16.3,39.1c-0.9,0.7-1,2-0.3,2.8
		c0.7,0.9,2,1,2.8,0.3l2.9-2.4v20.4c0,3.9,3.1,7,7,7h28.5c3.9,0,7-3.1,7-7V38.8l4.2,3.4c0.4,0.3,0.8,0.4,1.3,0.4
		c0.6,0,1.2-0.3,1.6-0.7C71.9,41,71.8,39.8,70.9,39.1z M60.2,60.2c0,1.7-1.3,3-3,3H28.7c-1.7,0-3-1.3-3-3V36.6l17.8-14.7l16.8,13.7
		V60.2z"/>
	<path id="XMLID_617_" class="st0" d="M86,31.2c-0.5-4.8-4.1-11.1-7.9-14c0,0-5.8-4.3-13-8.5c-7.2-4.3-13.8-7.2-13.8-7.2
		c-2.2-1-5.1-1.5-7.9-1.5c-2.9,0-5.8,0.5-7.9,1.5c0,0-6.5,2.9-13.8,7.2c-7.2,4.3-13,8.5-13,8.5c-3.9,2.9-7.4,9.2-7.9,14
		c0,0-0.8,7.2-0.8,15.8c0,8.5,0.8,15.8,0.8,15.8c0.5,4.8,4.1,11.1,7.9,14c0,0,5.8,4.3,13,8.6c7.2,4.3,13.8,7.2,13.8,7.2
		c2.2,1,5.1,1.5,7.9,1.5c2.9,0,5.8-0.5,7.9-1.5c0,0,6.5-2.9,13.8-7.2c7.2-4.3,13-8.6,13-8.6c3.9-2.9,7.4-9.2,7.9-14
		c0,0,0.8-7.2,0.8-15.8C86.8,38.5,86,31.2,86,31.2z M82,62.3c-0.4,3.8-3.4,9-6.3,11.2c-0.1,0-5.7,4.2-12.6,8.3
		c-6.9,4.1-13.3,7-13.4,7c-1.6,0.7-3.9,1.1-6.3,1.1c-2.4,0-4.7-0.4-6.3-1.1c-0.1,0-6.4-2.9-13.4-7c-6.9-4.1-12.6-8.3-12.6-8.3
		c-3-2.2-5.9-7.5-6.3-11.2C4.7,62.3,4,55.2,4,47c0-8.2,0.7-15.3,0.7-15.3c0.4-3.8,3.4-9,6.3-11.2c0.1,0,5.7-4.2,12.6-8.3
		c6.9-4.1,13.3-7,13.4-7C38.7,4.4,41,4,43.4,4c2.4,0,4.7,0.4,6.3,1.1c0.1,0,6.4,2.9,13.4,7c6.9,4.1,12.6,8.3,12.6,8.3
		c3,2.2,5.9,7.5,6.3,11.2c0,0.1,0.7,7.1,0.7,15.3C82.8,55.2,82,62.3,82,62.3z"/>
	<path id="XMLID_605_" class="st0" d="M35.2,45c-0.8-0.7-2.1-0.7-2.8,0.1c-0.7,0.8-0.7,2.1,0.1,2.8l7.7,6.9c0.4,0.3,0.9,0.5,1.3,0.5
		c0.5,0,1-0.2,1.4-0.6L54.8,43c0.8-0.8,0.8-2,0-2.8c-0.8-0.8-2-0.8-2.8,0L41.5,50.6L35.2,45z"/>
</g>
</svg>
