<?xml version="1.0" encoding="utf-8"?>
<!-- Generator: Adobe Illustrator 20.1.0, SVG Export Plug-In . SVG Version: 6.00 Build 0)  -->
<svg version="1.1" id="Layer_1" xmlns="http://www.w3.org/2000/svg" xmlns:xlink="http://www.w3.org/1999/xlink" x="0px" y="0px"
	 viewBox="0 0 86.8 94" style="enable-background:new 0 0 86.8 94;" xml:space="preserve">
<style type="text/css">
	.st0{display:none;fill:#C22353;}
	.st1{fill:#75808B;}
	.st2{fill:none;stroke:#75808B;stroke-width:4;stroke-miterlimit:10;}
</style>
<path class="st0" d="M86,31.2c-0.5-4.8-4.1-11.1-7.9-14c0,0-5.8-4.3-13-8.5c-7.2-4.3-13.8-7.2-13.8-7.2c-2.2-1-5.1-1.5-7.9-1.5
	c-2.9,0-5.8,0.5-7.9,1.5c0,0-6.5,2.9-13.8,7.2c-7.2,4.3-13,8.5-13,8.5c-3.9,2.9-7.4,9.2-7.9,14c0,0-0.8,7.2-0.8,15.8
	c0,8.5,0.8,15.8,0.8,15.8c0.5,4.8,4.1,11.1,7.9,14c0,0,5.8,4.3,13,8.6s13.8,7.2,13.8,7.2c2.2,1,5.1,1.5,7.9,1.5
	c2.9,0,5.8-0.5,7.9-1.5c0,0,6.5-2.9,13.8-7.2c7.2-4.3,13-8.6,13-8.6c3.9-2.9,7.4-9.2,7.9-14c0,0,0.8-7.2,0.8-15.8
	C86.8,38.5,86,31.2,86,31.2z M82,62.3c-0.4,3.8-3.4,9-6.3,11.2c-0.1,0-5.7,4.2-12.6,8.3c-6.9,4.1-13.3,7-13.4,7
	c-1.6,0.7-3.9,1.1-6.3,1.1s-4.7-0.4-6.3-1.1c-0.1,0-6.4-2.9-13.4-7c-6.9-4.1-12.6-8.3-12.6-8.3c-3-2.2-5.9-7.5-6.3-11.2
	C4.7,62.3,4,55.2,4,47s0.7-15.3,0.7-15.3c0.4-3.8,3.4-9,6.3-11.2c0.1,0,5.7-4.2,12.6-8.3s13.3-7,13.4-7C38.7,4.4,41,4,43.4,4
	s4.7,0.4,6.3,1.1c0.1,0,6.4,2.9,13.4,7c6.9,4.1,12.6,8.3,12.6,8.3c3,2.2,5.9,7.5,6.3,11.2c0,0.1,0.7,7.1,0.7,15.3
	C82.8,55.2,82,62.3,82,62.3z"/>
<path class="st0" d="M47.8,48.3c1.6-1.6,2.7-3.9,2.7-6.5c0-5-3.9-9-8.7-9s-8.7,4-8.7,9c0,2.6,1,4.9,2.7,6.5
	c-3.1,1.3-5.7,3.6-7.1,6.6c-0.6,1.3-0.5,2.8,0.2,4c0.4,0.6,1.2,1.9,5.3,3.2c1.4,0.5,4.3,1.2,7.4,1.2h0.1c4.1,0,11.1-1.7,12.9-4.7
	c0.8-1.3,0.8-2.8,0.2-4.1C53.4,51.8,50.9,49.6,47.8,48.3z M41.8,36.9c2.6,0,4.7,2.2,4.7,5s-2.1,5-4.7,5s-4.7-2.2-4.7-5
	S39.2,36.9,41.8,36.9z M41.8,59.5C41.7,59.5,41.7,59.5,41.8,59.5c-4.9,0-9.7-2.2-9.5-2.8c1.6-3.3,5.3-5.6,9.6-5.6
	c4.2,0,7.9,2.2,9.5,5.4C51.6,57.1,46.8,59.4,41.8,59.5z"/>
<path class="st0" d="M59,22.6v-4.1c0-1.4-0.6-2.7-1.6-3.5s-2.4-1-3.8-0.6l-29.1,8.2c-0.6,0.2-1,0.6-1.3,1.1
	c-0.7,0.7-1.2,1.7-1.2,2.9v45c0,2.2,1.8,4,4,4h32c2.2,0,4-1.8,4-4v-45C62,24.6,60.7,23,59,22.6z M54.7,18.2H55c0,0,0.1,0.1,0.1,0.3
	v4H39.5L54.7,18.2z M58,71.5H26v-45h32V71.5z"/>
<g>
	<g>
		<g id="XMLID_2_">
			<path id="XMLID_3_" class="st1" d="M43.4,4c2.4,0,4.7,0.4,6.3,1.1c0.1,0,6.4,2.9,13.4,7c6.9,4.1,12.6,8.3,12.6,8.3
				c3,2.2,5.9,7.5,6.3,11.2c0,0.1,0.7,7.1,0.7,15.3S82,62.1,82,62.1c-0.4,3.8-3.4,9-6.3,11.2c-0.1,0-5.7,4.2-12.6,8.3
				c-6.9,4.1-13.3,7-13.4,7c-1.6,0.7-3.9,1.1-6.3,1.1c-2.4,0-4.7-0.4-6.3-1.1c-0.1,0-6.4-2.9-13.4-7c-6.9-4.1-12.6-8.3-12.6-8.3
				c-3-2.2-5.9-7.5-6.3-11.2C4.7,62.2,4,55.1,4,47s0.7-15.3,0.7-15.3c0.4-3.8,3.4-9,6.3-11.2c0.1,0,5.7-4.2,12.6-8.3s13.3-7,13.4-7
				C38.7,4.4,41,4,43.4,4 M43.4,0c-2.9,0-5.8,0.5-7.9,1.5c0,0-6.5,2.9-13.8,7.2c-7.2,4.3-13,8.5-13,8.5c-3.9,2.9-7.4,9.2-7.9,14
				c0,0-0.8,7.2-0.8,15.8c0,8.5,0.8,15.8,0.8,15.8c0.5,4.8,4.1,11.1,7.9,14c0,0,5.8,4.3,13,8.6c7.2,4.3,13.8,7.2,13.8,7.2
				c2.2,1,5.1,1.5,7.9,1.5s5.8-0.5,7.9-1.5c0,0,6.5-2.9,13.8-7.2c7.2-4.3,13-8.6,13-8.6c3.9-2.9,7.4-9.2,7.9-14
				c0,0,0.8-7.2,0.8-15.8c0-8.5-0.8-15.8-0.8-15.8c-0.5-4.8-4.1-11.1-7.9-14c0,0-5.8-4.3-13-8.5c-7.2-4.3-13.8-7.2-13.8-7.2
				C49.1,0.5,46.3,0,43.4,0L43.4,0z"/>
		</g>
	</g>
</g>
<g>
	<ellipse transform="matrix(0.6442 -0.7649 0.7649 0.6442 -8.6463 53.6207)" class="st2" cx="53.3" cy="36.1" rx="4.1" ry="4.1"/>
	<g>
		<path class="st2" d="M63,37.9c-3,7.5-21.6,22.5-21.6,22.5c-4.4-1.2-7.7-3.9-9.8-8.1c0,0,11.8-20.9,18.4-25.3
			c2.4-1.6,11.7-3.7,14.3-4.2c0.3-0.1,0.7,0.2,0.6,0.6C64.7,25.9,64,35.3,63,37.9z"/>
		<path class="st2" d="M36.9,42.3c0,0-7-0.6-9,0.5c-1.3,0.7-3.1,4-3.9,5.4c-0.2,0.3,0,0.7,0.4,0.8l7.9,1.6l5.5-8.3L36.9,42.3z"/>
		<path class="st2" d="M50.5,53.8c0,0,1.8,6.8,1,8.9c-0.5,1.4-3.4,3.7-4.6,4.7c-0.3,0.2-0.7,0.1-0.8-0.2l-2.9-7.5l7.3-6.8L50.5,53.8
			z"/>
		<path class="st2" d="M32.1,53.5l-2.8,4.8c1.8,2.7,3.8,4.5,6.3,5.4l4.6-3.6"/>
		<path class="st2" d="M27.4,62c0,0-4.2,2.3-4.5,3.8c-0.2,0.9,0.6,3.7,0.9,4.7c0.1,0.2,0.2,0.3,0.4,0.4c1,0.1,3.9,0.5,4.7,0.1
			c1.4-0.6,3.1-5,3.1-5"/>
	</g>
</g>
</svg>
