<?xml version="1.0" encoding="UTF-8" standalone="no"?>
<svg width="101px" height="110px" viewBox="0 0 101 110" version="1.1" xmlns="http://www.w3.org/2000/svg" xmlns:xlink="http://www.w3.org/1999/xlink" xmlns:sketch="http://www.bohemiancoding.com/sketch/ns">
    <!-- Generator: Sketch 3.3 (11970) - http://www.bohemiancoding.com/sketch -->
    <title>posobie</title>
    <desc>Created with Sketch.</desc>
    <defs></defs>
    <g id="Page-1" stroke="none" stroke-width="1" fill="none" fill-rule="evenodd" sketch:type="MSPage">
        <g id="02-6" sketch:type="MSArtboardGroup" transform="translate(-722.000000, -536.000000)" fill="#5EB346">
            <g id="posobie" sketch:type="MSLayerGroup" transform="translate(723.000000, 537.000000)">
                <path d="M49.6931477,25.9681053 C49.6931477,28.2051579 47.8935114,30.0207368 45.6761023,30.0207368 C43.4563977,30.0207368 41.6590568,28.2051579 41.6590568,25.9681053 C41.6590568,23.7298947 43.4563977,21.9154737 45.6761023,21.9154737 C47.8935114,21.9154737 49.6931477,23.7298947 49.6931477,25.9681053" id="Fill-1" sketch:type="MSShapeGroup"></path>
                <path d="M58.8749659,25.9681053 C58.8749659,28.2051579 57.0741818,30.0207368 54.8579205,30.0207368 C52.6382159,30.0207368 50.840875,28.2051579 50.840875,25.9681053 C50.840875,23.7298947 52.6382159,21.9154737 54.8579205,21.9154737 C57.077625,21.9154737 58.8749659,23.7298947 58.8749659,25.9681053" id="Fill-2" sketch:type="MSShapeGroup"></path>
                <path d="M49.6208409,4.54705263 C52.3960455,4.54705263 55.0277841,5.02063158 56.8411932,5.84505263 C56.9135,5.87747368 64.1900909,9.20526316 72.1874545,13.9584211 C80.1549773,18.6907368 86.620125,23.5295789 86.6821023,23.5782105 C90.1080682,26.1522105 93.513375,32.23 93.967875,36.5825263 C93.9770568,36.6635789 94.8194886,44.8545263 94.8194886,54.3365263 C94.8194886,63.8185263 93.9770568,72.0094737 93.967875,72.0893684 C93.513375,76.4430526 90.1080682,82.5196842 86.6821023,85.0925263 C86.6178295,85.14 80.1549773,89.9846316 72.1851591,94.7215789 C64.2141932,99.4550526 56.9135,102.795579 56.8457841,102.828 C55.0277841,103.653579 52.3960455,104.126 49.6208409,104.126 C46.8479318,104.126 44.2161932,103.653579 42.4027841,102.829158 C42.331625,102.794421 35.0263409,99.4550526 27.0588182,94.7227368 C19.0878523,89.9846316 12.6227045,85.14 12.5572841,85.0913684 C9.13476136,82.5196842 5.73175,76.4430526 5.27495455,72.0905263 C5.26806818,72.0083158 4.42448864,63.8463158 4.42448864,54.3365263 C4.42448864,44.8545263 5.26806818,36.6635789 5.27495455,36.5848421 C5.73175,32.23 9.13705682,26.1522105 12.561875,23.5770526 C12.625,23.5295789 19.0626023,18.7046316 27.0565227,13.9572632 C35.0274886,9.22031579 42.331625,5.87747368 42.4027841,5.84621053 C44.2161932,5.02063158 46.8479318,4.54705263 49.6208409,4.54705263 M49.6208409,-0.0845263158 C46.321125,-0.0845263158 43.0191136,0.485157895 40.5159205,1.62336842 C40.5159205,1.62336842 33.0281477,5.03336842 24.7277841,9.966 C16.4262727,14.8951579 9.81880682,19.8636842 9.81880682,19.8636842 C5.39546591,23.188 1.29807955,30.4931579 0.710443182,36.0973684 C0.710443182,36.0973684 -0.165272727,44.4735789 -0.165272727,54.3365263 C-0.165272727,64.1994737 0.710443182,72.5768421 0.710443182,72.5768421 C1.29807955,78.1798947 5.39546591,85.4838947 9.81651136,88.8058947 C9.81651136,88.8058947 16.4262727,93.7778947 24.7277841,98.7128421 C33.0281477,103.642 40.5159205,107.049684 40.5159205,107.049684 C43.0191136,108.189053 46.321125,108.757579 49.6208409,108.757579 C52.9228523,108.757579 56.2248636,108.189053 58.7315,107.049684 C58.7315,107.049684 66.2135341,103.642 74.5150455,98.7128421 C82.8154091,93.7778947 89.4263182,88.8058947 89.4263182,88.8058947 C93.8485114,85.4838947 97.9470455,78.1798947 98.5346818,72.5768421 C98.5346818,72.5768421 99.4103977,64.1994737 99.4103977,54.3365263 C99.4103977,44.4735789 98.5346818,36.0973684 98.5346818,36.0973684 C97.9470455,30.4931579 93.8485114,23.188 89.4263182,19.8636842 C89.4263182,19.8636842 82.8154091,14.8951579 74.5173409,9.966 C66.2135341,5.03336842 58.7315,1.62336842 58.7315,1.62336842 C56.2248636,0.485157895 52.9228523,-0.0845263158 49.6208409,-0.0845263158" id="Fill-3" sketch:type="MSShapeGroup"></path>
                <path d="M68.9347955,44.9552632 C68.9347955,44.9552632 74.9431477,54.3967368 74.9431477,61.1657895 C74.9431477,72.3973684 65.9185682,72.8628421 54.7833182,72.8628421 L45.7472614,72.8628421 C34.6154545,72.8628421 25.590875,72.3973684 25.590875,61.1657895 C25.590875,54.3967368 31.5957841,44.9552632 31.5957841,44.9552632 L68.9347955,44.9552632 M68.9347955,40.3236842 L31.5957841,40.3236842 C30.0314318,40.3236842 28.5761136,41.1272632 27.7313864,42.4542105 C27.0438977,43.538 20.9999659,53.2654737 20.9999659,61.1657895 C20.9999659,70.0074737 25.7538523,73.8447368 29.7422045,75.5074737 C34.1517727,77.3450526 39.5988864,77.4944211 45.7472614,77.4944211 L54.7833182,77.4944211 C60.9328409,77.4944211 66.38225,77.3450526 70.7918182,75.5074737 C74.7790227,73.8447368 79.5340568,70.0074737 79.5340568,61.1657895 C79.5340568,53.2654737 73.4878295,43.5368421 72.7980455,42.4530526 C71.9544659,41.1272632 70.498,40.3236842 68.9347955,40.3236842" id="Fill-4" sketch:type="MSShapeGroup"></path>
                <path d="M70.5921136,39.2838947 L28.7941818,39.2838947 C27.5247955,39.2838947 26.4987273,38.2464211 26.4987273,36.9681053 C26.4987273,35.6886316 27.5247955,34.6523158 28.7941818,34.6523158 L70.5921136,34.6523158 C71.8580568,34.6523158 72.8875682,35.6886316 72.8875682,36.9681053 C72.8875682,38.2464211 71.8580568,39.2838947 70.5921136,39.2838947" id="Fill-5" sketch:type="MSShapeGroup"></path>
                <path d="M54.2840568,37.5470526 C53.6964205,37.5470526 53.1087841,37.3201053 52.6611705,36.8685263 L46.3486705,30.5001053 C45.4522955,29.5957895 45.4522955,28.1298947 46.3486705,27.2255789 C47.2450455,26.3201053 48.6980682,26.3201053 49.5944432,27.2255789 L55.9069432,33.594 C56.8033182,34.4983158 56.8033182,35.9642105 55.9069432,36.8685263 C55.4581818,37.3201053 54.8716932,37.5470526 54.2840568,37.5470526" id="Fill-6" sketch:type="MSShapeGroup"></path>
                <path d="M46.2499659,37.5470526 C45.6623295,37.5470526 45.0746932,37.3201053 44.6270795,36.8685263 C43.7307045,35.9642105 43.7307045,34.4983158 44.6270795,33.594 L50.9395795,27.2255789 C51.8359545,26.3201053 53.2889773,26.3201053 54.1853523,27.2255789 C55.0817273,28.1298947 55.0817273,29.5957895 54.1853523,30.5001053 L47.8728523,36.8685263 C47.4240909,37.3201053 46.8376023,37.5470526 46.2499659,37.5470526" id="Fill-7" sketch:type="MSShapeGroup"></path>
            </g>
        </g>
    </g>
</svg>