<?xml version="1.0" encoding="utf-8"?>
<!-- Generator: Adobe Illustrator 19.2.1, SVG Export Plug-In . SVG Version: 6.00 Build 0)  -->
<svg version="1.1" id="Layer_1" xmlns="http://www.w3.org/2000/svg" xmlns:xlink="http://www.w3.org/1999/xlink" x="0px" y="0px"
	 viewBox="226.9014893 87.0970535 388.3889771 420.2859497"
	 style="enable-background:new 226.9014893 87.0970535 388.3889771 420.2859497;" xml:space="preserve">
<style type="text/css">
	.st0{fill:#F28230;}
</style>
<path id="XMLID_382_" class="st0" d="M611.6885986,226.9923706c-2.1998901-21.5992889-18.1994019-49.5983429-35.3988037-62.5979156
	c0,0-25.9991455-19.3993378-58.0980225-37.9987259c-32.3989258-19.6993332-61.6979675-32.6988983-61.6979675-32.6988983
	c-9.9996643-4.4998474-22.9992371-6.5997772-35.3988037-6.5997772c-12.9995728,0-25.9991455,2.1999207-35.3988037,6.5997772
	c0,0-29.0990295,12.9995651-61.6979675,32.0989227c-32.0989075,19.3993454-58.098053,37.9987259-58.098053,37.9987259
	c-17.4994049,12.9995575-33.1988831,41.2986145-35.3988037,62.5979004c0,0-3.599884,32.0989227-3.599884,70.597641
	c0,37.9987183,3.599884,70.5976563,3.599884,70.5976563c2.1999207,21.5992737,18.1993866,49.5983276,35.3988037,62.5979004
	c0,0,25.9991455,19.399353,58.098053,38.4987183s61.6979675,32.0989075,61.6979675,32.0989075
	c9.9996643,4.4998474,22.6992493,6.5997925,35.3988037,6.5997925c12.9995728,0,25.999115-2.1999207,35.3988037-6.5997925
	c0,0,29.0990295-12.9995422,61.6979675-32.0989075c32.098877-19.399353,58.0980225-38.4987183,58.0980225-38.4987183
	c17.4993896-12.9995728,33.1989136-41.2986145,35.3988037-62.5979004c0,0,3.5998535-32.098938,3.5998535-70.5976563
	C615.3884888,259.6912842,611.6885986,226.9923706,611.6885986,226.9923706z M593.689209,365.9877014
	c-1.5999146,16.8994446-15.1994629,40.3986511-28.1990356,50.0983276c-0.5999756,0-25.4991455,18.7993774-56.4981384,37.0987854
	c-30.9989624,18.1994019-59.4979858,31.2989197-60.0979919,31.2989197
	c-7.1997681,2.9999084-17.4993896,4.8998413-28.1990662,4.8998413c-10.699646,0-21.0993042-1.5999451-28.1990662-4.8998413
	c-0.5999756,0-28.4990234-12.9995422-60.0979919-31.2989197c-30.9989624-18.1994019-56.4981079-37.0987854-56.4981079-37.0987854
	c-13.5995483-9.9996643-26.299118-33.4988708-28.1990509-50.0983276c-0.5999756,0-3.599884-31.7989197-3.599884-68.3977051
	s2.9999084-68.3976898,2.9999084-68.3976898c1.5999451-16.8994293,15.1994781-40.3986359,28.1990509-50.0983276
	c0.5999756,0,25.4991455-18.7993774,56.4981079-37.0987701s60.0979919-31.4989395,60.6979675-31.4989395
	c7.4997559-3.5998764,17.9993896-5.1998215,28.499054-5.1998215c10.4996338,0,21.0993042,1.5999451,28.1990662,4.8998413
	c0.5999756,0,28.499054,12.9995575,60.0979919,31.2989502c30.7989807,18.1993866,56.1981506,37.0987549,56.1981506,37.0987549
	c13.5994873,9.9996643,26.2990723,33.4988861,28.1990356,50.0983276c0,0.5999908,2.999939,31.7989197,2.999939,68.3977051
	C597.2890625,334.3887634,593.689209,365.9877014,593.689209,365.9877014z"/>
<g>
	<path class="st0" d="M384.1260986,206.9495392c-12.1391296,4.9216309-23.0316162,12.1580505-32.3718872,21.4956207
		c-9.3429871,9.340271-16.5712891,20.2354584-21.495636,32.3718872
		c-4.7539673,11.7253723-7.1661072,24.1159668-7.1661072,36.8256836c0,12.7070007,2.4121399,25.0975952,7.1661072,36.8175659
		c4.9243469,12.1390991,12.155365,23.0343018,21.495636,32.3718872c9.340271,9.3429871,20.2300415,16.5739746,32.3718872,21.4956055
		c11.7253723,4.7593689,24.1132507,7.1633911,36.8229675,7.1633911c12.7096863,0,25.0948792-2.4121094,36.820282-7.1633911
		c12.1364136-4.9216309,23.0343018-12.1526489,32.3718567-21.495636c9.3429871-9.3375549,16.5740051-20.227356,21.495636-32.3718567
		c4.7539673-11.7199707,7.1607056-24.1105957,7.1607056-36.8175964c0-12.7096863-2.4094238-25.1003113-7.1607056-36.8256836
		c-4.9216309-12.1363983-12.1580505-23.0342865-21.495636-32.3718719
		c-9.3375549-9.3375702-20.2246399-16.5739899-32.3718872-21.4956207
		c-11.7253723-4.7512512-24.1105652-7.1606903-36.8202515-7.1606903
		C408.2393494,199.7888336,395.8514709,202.1982727,384.1260986,206.9495392z M347.5491943,338.8356628
		c-4.7134094-2.958374-9.0563354-6.3656616-12.9017029-10.3786926c-5.8735046-16.5280151-6.8686523-34.4216614-2.9773254-51.4066772
		c1.8307495-3.6101074,3.9129639-7.0768738,6.2683105-10.3976135c0.7274475-1.0249023,1.4007874-2.0930481,2.1795959-3.0881958
		l22.082428,13.0666504c0,0.1730652,0,0.3623657,0,0.5543518c-0.0567932,11.8768311,1.149292,23.6671143,3.5505981,35.2870178
		c0.0081177,0.0540771,0.0162354,0.0838318,0.0270386,0.1325073l-17.1256409,26.8526306
		C348.2793274,339.2683411,347.908844,339.0628052,347.5491943,338.8356628z M413.2069702,384.2309265
		c3.8102112,1.9443359,7.7285767,3.5857544,11.755127,4.9216309c-17.1040344,0.7436523-34.3783875-3.2639465-49.6489563-12.0255432
		l37.0176697,6.59552C412.6147461,383.903717,412.9040833,384.0768127,413.2069702,384.2309265z M413.0717468,377.5488892
		l-43.6835022-7.7853699c-5.1109314-6.2061462-9.7080383-12.7719116-13.6588745-19.7892761
		c-1.0059509-1.78479-2.1282043-3.518158-2.980011-5.3813477l17.1094055-26.825592
		c0.3786011,0.094635,0.8004456,0.1947021,1.2790833,0.3218079c10.703186,2.863739,21.5956726,4.8999939,32.5638733,6.4954529
		c0.6408997,0.0892639,1.1763306,0.1676636,1.6333313,0.2163391l20.508606,35.460083
		c-3.5587158,5.0027466-7.1579895,9.9784546-10.8356934,14.9000854
		C414.3968201,375.9804382,413.7478027,376.7673645,413.0717468,377.5488892z M485.7496033,362.4432678
		c-3.4775696,3.4802856-7.1687927,6.617157-11.0331116,9.413269c-0.6408691-5.1217346-1.7468872-10.1407166-3.3072205-15.043396
		l21.8823242-40.8224792c6.0276489-2.744751,11.8416443-5.8572998,17.2391968-9.716156
		c0.7058105-0.5003052,1.2926025-1.0600586,1.7469177-1.6712036
		C510.6930847,325.6987,501.8503418,346.3452148,485.7496033,362.4432678z M484.7788086,309.5006104
		c0.8139648,1.5521851,1.6170959,3.1206055,2.4229431,4.7106934l-21.1359558,39.4270935
		c-0.1216736,0.0270386-0.2379761,0.0541077-0.3596497,0.0703125c-11.4252014,2.133606-22.9423523,3.2693787-34.5568542,3.3234558
		L410.0565796,320.56073c3.2828979-6.0952454,6.5360413-12.2148438,9.762146-18.3371277
		c2.1903992-4.1536255,4.342926-8.3343201,6.4927673-12.5122986l43.6537476-4.483551
		C475.3114319,293.0699158,480.3763733,301.0797424,484.7788086,309.5006104z M475.9225769,262.734314
		c-2.0714111,5.4705811-4.2888489,10.8843689-6.4927673,16.30896l-42.526123,4.3672791
		c-0.5083923-0.6706238-1.0357056-1.3304443-1.5900574-1.9605408c-5.021698-5.6869202-10.0758362-11.3386536-15.1218567-17.0066528
		c0.04599-0.0567932,0.0919495-0.1000671,0.1379395-0.1514282c-2.0362854-2.0335693-4.0779419-4.0671082-6.1141968-6.1060791
		l11.8389587-35.6439362c0.8166504-0.2163391,1.6387329-0.397522,2.4689331-0.4867554
		c6.4359741-0.6544189,12.8800659-1.3953705,19.3322449-1.7685394c3.9508362-0.221756,7.9232788-0.3488464,11.9417114-0.0649109
		l29.2918091,33.0154724C478.0805054,256.4227295,477.0961914,259.6163635,475.9225769,262.734314z M485.7496033,232.8367615
		c8.0801392,8.0855408,14.3376465,17.3122406,18.7616882,27.1690063
		c-5.4732666-3.7669373-11.3251343-6.8659363-17.4771729-9.3916473c-0.9573059-0.3948059-1.9389038-0.7436523-2.9367676-1.0870819
		l-28.8320923-32.4962769c0.2001038-1.4034729,0.3055725-2.8096466,0.3488464-4.2266541
		C466.5823059,217.2687378,476.8636169,223.9534912,485.7496033,232.8367615z M391.6004639,211.0977631
		c0.1135864,0.0838318,0.1676636,0.1541443,0.2325745,0.1730804c6.5901184,2.2769165,12.5852966,5.630127,18.2370605,9.6079865
		l-11.0601501,33.3075256c-0.0567627,0.0162354-0.1108704,0.0324554-0.1649475,0.0567932
		c-2.2633972,0.9356537-4.5700989,1.773941-6.7983398,2.7880096c-9.1807251,4.1725769-18.1315918,8.7940369-26.5632629,14.3349304
		l-21.825531-12.9125061c0.0324402-0.6814575,0.1487122-1.3737183,0.3812866-1.9902954
		c1.4656677-3.9048462,2.9070129-7.8313293,4.5646667-11.6577606c1.2763672-2.9475708,2.7312317-5.7950897,4.3186035-8.5776978
		c1.0383911-1.1465759,2.1146851-2.2823334,3.2233887-3.3910522c10.3651733-10.3624573,22.6151428-17.7205658,35.6574707-22.0716095
		C391.7356873,210.8706207,391.6653748,210.9814911,391.6004639,211.0977631z"/>
</g>
</svg>
