<svg id="Layer_1" xmlns="http://www.w3.org/2000/svg" viewBox="0 0 86.8 94"><style>.st0{fill:#2B7DB0;}</style><path class="st0" d="M86 31.2c-.5-4.8-4.1-11.1-7.9-14 0 0-5.8-4.3-13-8.5-7.2-4.3-13.8-7.2-13.8-7.2C49.1.5 46.2 0 43.4 0c-2.9 0-5.8.5-7.9 1.5 0 0-6.5 2.9-13.8 7.2-7.2 4.3-13 8.5-13 8.5-3.9 2.9-7.4 9.2-7.9 14 0 0-.8 7.2-.8 15.8 0 8.5.8 15.8.8 15.8.5 4.8 4.1 11.1 7.9 14 0 0 5.8 4.3 13 8.6s13.8 7.2 13.8 7.2c2.2 1 5.1 1.5 7.9 1.5 2.9 0 5.8-.5 7.9-1.5 0 0 6.5-2.9 13.8-7.2 7.2-4.3 13-8.6 13-8.6 3.9-2.9 7.4-9.2 7.9-14 0 0 .8-7.2.8-15.8 0-8.5-.8-15.8-.8-15.8zm-4 31.1c-.4 3.8-3.4 9-6.3 11.2-.1 0-5.7 4.2-12.6 8.3-6.9 4.1-13.3 7-13.4 7-1.6.7-3.9 1.1-6.3 1.1s-4.7-.4-6.3-1.1c-.1 0-6.4-2.9-13.4-7-6.9-4.1-12.6-8.3-12.6-8.3-3-2.2-5.9-7.5-6.3-11.2-.1 0-.8-7.1-.8-15.3 0-8.2.7-15.3.7-15.3.4-3.8 3.4-9 6.3-11.2.1 0 5.7-4.2 12.6-8.3 6.9-4.1 13.3-7 13.4-7 1.7-.8 4-1.2 6.4-1.2s4.7.4 6.3 1.1c.1 0 6.4 2.9 13.4 7 6.9 4.1 12.6 8.3 12.6 8.3 3 2.2 6 7.5 6.3 11.2 0 .1.7 7.1.7 15.3.1 8.3-.7 15.4-.7 15.4z"/><path class="st0" d="M59.6 26.6c-3.3-2-16.5-2-16.6-2-.1 0-13.3 0-16.6 2-2.7 1.6-5.9 8.5-7.4 14.2-1.6 6-.4 14.6 0 17 .1.7.4 1.2 1.1 1.7v6.9c0 1.1.9 2 2 2h8.1c1.1 0 2-.9 2-2v-4.6c3.7.3 7.7.5 10.9.5s7.2-.2 10.9-.5v4.6c0 1.1.9 2 2 2h8c1.1 0 2-.9 2-2v-6.9c.7-.5 1-1 1.1-1.7.4-2.5 1.6-11 0-17-1.6-5.7-4.8-12.6-7.5-14.2zM28.4 30c1.1-.7 7.6-1.4 14.6-1.4s13.5.8 14.6 1.4c.8.5 2.9 3.9 4.6 8.5-3.9-.8-11.3-2.2-19.2-2.2-7.8 0-15.3 1.4-19.2 2.2 1.7-4.6 3.8-8 4.6-8.5zm-.3 34.4H24v-3.6c1.1.2 2.5.4 4.1.6v3zm33.9 0h-4.1v-3c1.7-.2 3-.4 4.1-.6v3.6zm1.3-8c-2.6.9-12.7 1.9-20.3 1.9-7.5 0-17.7-1-20.3-1.9-.6-4.2-.9-9.6-.2-13.5 1.9-.5 11-2.6 20.4-2.6 9.4 0 18.5 2.2 20.4 2.6.9 3.9.6 9.3 0 13.5z"/><circle class="st0" cx="58" cy="48.6" r="3"/><circle class="st0" cx="28" cy="48.6" r="3"/></svg>