<?xml version="1.0" encoding="utf-8"?>
<!-- Generator: Adobe Illustrator 19.0.0, SVG Export Plug-In . SVG Version: 6.00 Build 0)  -->
<svg version="1.1" id="Layer_1" xmlns="http://www.w3.org/2000/svg" xmlns:xlink="http://www.w3.org/1999/xlink" x="0px" y="0px"
	 viewBox="0 0 86.8 94" style="enable-background:new 0 0 86.8 94;" xml:space="preserve">
<style type="text/css">
	.st0{fill:#65B94D;}
	.st1{fill:none;stroke:#62B84D;stroke-width:4;stroke-linecap:round;stroke-linejoin:round;stroke-miterlimit:10;}
</style>
<path class="st0" d="M86,31.2c-0.5-4.8-4.1-11.1-7.9-14c0,0-5.8-4.3-13-8.5c-7.2-4.3-13.8-7.2-13.8-7.2c-2.2-1-5.1-1.5-7.9-1.5
	c-2.9,0-5.8,0.5-7.9,1.5c0,0-6.5,2.9-13.8,7.2c-7.2,4.3-13,8.5-13,8.5c-3.9,2.9-7.4,9.2-7.9,14c0,0-0.8,7.2-0.8,15.8
	c0,8.5,0.8,15.8,0.8,15.8c0.5,4.8,4.1,11.1,7.9,14c0,0,5.8,4.3,13,8.6c7.2,4.3,13.8,7.2,13.8,7.2c2.2,1,5.1,1.5,7.9,1.5
	c2.9,0,5.8-0.5,7.9-1.5c0,0,6.5-2.9,13.8-7.2c7.2-4.3,13-8.6,13-8.6c3.9-2.9,7.4-9.2,7.9-14c0,0,0.8-7.2,0.8-15.8
	C86.8,38.5,86,31.2,86,31.2z M82,62.3c-0.4,3.8-3.4,9-6.3,11.2c-0.1,0-5.7,4.2-12.6,8.3c-6.9,4.1-13.3,7-13.4,7
	c-1.6,0.7-3.9,1.1-6.3,1.1s-4.7-0.4-6.3-1.1c-0.1,0-6.4-2.9-13.4-7c-6.9-4.1-12.6-8.3-12.6-8.3c-3-2.2-5.9-7.5-6.3-11.2
	C4.7,62.3,4,55.2,4,47c0-8.2,0.7-15.3,0.7-15.3c0.4-3.8,3.4-9,6.3-11.2c0.1,0,5.7-4.2,12.6-8.3c6.9-4.1,13.3-7,13.4-7
	C38.7,4.4,41,4,43.4,4s4.7,0.4,6.3,1.1c0.1,0,6.4,2.9,13.4,7c6.9,4.1,12.6,8.3,12.6,8.3c3,2.2,5.9,7.5,6.3,11.2
	c0,0.1,0.7,7.1,0.7,15.3C82.8,55.2,82,62.3,82,62.3z"/>
<path class="st1" d="M23.3,34.7h40.2c0.5,0,1,0.5,1,1v27.5c0,0.5-0.5,1-1,1H23.3c-0.5,0-1-0.5-1-1V35.7
	C22.3,35.1,22.7,34.7,23.3,34.7z"/>
<path class="st1" d="M36.3,23.9h14.2c0.6,0,1,0.4,1,1v8.8c0,0.5-0.4,1-1,1H36.3c-0.5,0-1-0.5-1-1v-8.8
	C35.3,24.3,35.7,23.9,36.3,23.9z"/>
<line class="st1" x1="48" y1="52" x2="62.5" y2="52"/>
<line class="st1" x1="23.5" y1="52" x2="38.8" y2="52"/>
<path class="st1" d="M39.8,48.5H47c0.6,0,1,0.5,1,1v5.9c0,0.5-0.4,1-1,1h-7.2c-0.5,0-1-0.5-1-1v-5.9C38.8,49,39.2,48.5,39.8,48.5z"
	/>
</svg>
